
<svg width="904px" height="749px" viewBox="0 0 904 749" version="1.1" xmlns="http://www.w3.org/2000/svg" xmlns:xlink="http://www.w3.org/1999/xlink">
    <defs>
        <linearGradient x1="49.9999715%" y1="100%" x2="49.9999715%" y2="0%" id="linearGradient-1">
            <stop stop-color="#808080" stop-opacity="0.25" offset="0%"></stop>
            <stop stop-color="#808080" stop-opacity="0.12" offset="53.514%"></stop>
            <stop stop-color="#808080" stop-opacity="0.1" offset="100%"></stop>
        </linearGradient>
        <linearGradient x1="49.9999928%" y1="99.9999931%" x2="49.9999928%" y2="-5.25530901e-07%" id="linearGradient-2">
            <stop stop-color="#808080" stop-opacity="0.25" offset="0%"></stop>
            <stop stop-color="#808080" stop-opacity="0.12" offset="53.514%"></stop>
            <stop stop-color="#808080" stop-opacity="0.1" offset="100%"></stop>
        </linearGradient>
        <linearGradient x1="50%" y1="100%" x2="50%" y2="-1.89478063e-12%" id="linearGradient-3">
            <stop stop-color="#808080" stop-opacity="0.25" offset="0%"></stop>
            <stop stop-color="#808080" stop-opacity="0.12" offset="53.514%"></stop>
            <stop stop-color="#808080" stop-opacity="0.1" offset="100%"></stop>
        </linearGradient>
        <linearGradient x1="50%" y1="100%" x2="50%" y2="0%" id="linearGradient-4">
            <stop stop-color="#808080" stop-opacity="0.25" offset="0%"></stop>
            <stop stop-color="#808080" stop-opacity="0.12" offset="53.514%"></stop>
            <stop stop-color="#808080" stop-opacity="0.1" offset="100%"></stop>
        </linearGradient>
    </defs>
    <g id="Page-1" stroke="none" stroke-width="1" fill="none" fill-rule="evenodd">
        <g id="About3">
            <path d="M137.27289,601.89478 C137.27289,647.13359 110.37843,662.93128 77.20496,662.93128 C76.43262,662.93128 75.66444,662.92292 74.90046,662.90205 C73.36411,662.86865 71.84028,662.80186 70.33733,662.69331 C40.3952,660.57665 17.13288,643.96488 17.13288,601.89478 C17.13288,558.35932 72.75875,503.42229 76.95448,499.34344 L76.96284,499.33926 C77.12149,499.18064 77.20496,499.10132 77.20496,499.10132 C77.20496,499.10132 137.27289,556.65179 137.27289,601.89478 Z" id="Path" fill="#2A591F" fill-rule="nonzero"></path>
            <path d="M75.01316,656.00935 L96.98547,625.31162 L74.95889,659.37849 L74.90046,662.90207 C73.36411,662.86867 71.84028,662.80188 70.33733,662.69333 L72.70447,617.43365 L72.68776,617.08295 L72.72952,617.01617 L72.95078,612.74109 L50.86995,578.58651 L73.01759,609.53477 L73.07186,610.44077 L74.86286,576.24445 L55.9591,540.95435 L75.09247,570.23682 L76.95447,499.34347 L76.96283,499.10135 L76.96283,499.33929 L76.65383,555.2449 L95.46994,533.08054 L76.57451,560.05854 L76.07772,590.677 L93.64972,561.29431 L76.00265,595.18577 L75.72712,612.2067 L101.23552,571.30555 L75.63111,618.14755 L75.01316,656.00935 Z" id="Path" fill="#F2F2F2" fill-rule="nonzero"></path>
            <g id="Group" opacity="0.7" transform="translate(779.000000, 273.000000)" fill="url(#linearGradient-1)" fill-rule="nonzero">
                <path d="M54.98434,11.80495 L54.98434,0.90984 L0.5088,0.90984 L0.5088,51.29972 C0.5088,57.1664872 5.26476279,61.92245 11.13153,61.92245 L44.36165,61.92245 C50.2284172,61.92245 54.984369,57.1664872 54.98438,51.29972 L54.98438,40.13223 C62.806742,40.1322295 69.1480192,33.790952 69.1480192,25.96859 C69.1480192,18.146228 62.806742,11.8049505 54.98438,11.80495 L54.98434,11.80495 Z M54.98434,34.68468 L54.98434,17.25251 C59.7981008,17.25251 63.700425,21.1548342 63.700425,25.968595 C63.700425,30.7823558 59.7981008,34.68468 54.98434,34.68468 L54.98434,34.68468 Z" id="Shape"></path>
            </g>
            <path d="M832.23165,286.51027 C825.089504,286.51027 819.29965,292.300124 819.29965,299.44227 C819.29965,306.584416 825.089504,312.37427 832.23165,312.37427 C839.373796,312.37427 845.16365,306.584416 845.16365,299.44227 C845.16365,292.300124 839.373796,286.51027 832.23165,286.51027 Z M832.23165,307.40046 C827.836474,307.40046 824.27348,303.837466 824.27348,299.44229 C824.27348,295.047114 827.836474,291.48412 832.23165,291.48412 C836.626826,291.48412 840.18982,295.047114 840.18982,299.44229 C840.18982,303.837466 836.626826,307.40046 832.23165,307.40046 L832.23165,307.40046 Z" id="Shape" fill="#FFFFFF" fill-rule="nonzero"></path>
            <path d="M832.23165,286.51027 C825.089504,286.51027 819.29965,292.300124 819.29965,299.44227 C819.29965,306.584416 825.089504,312.37427 832.23165,312.37427 C839.373796,312.37427 845.16365,306.584416 845.16365,299.44227 C845.16365,292.300124 839.373796,286.51027 832.23165,286.51027 Z M832.23165,307.40046 C827.836474,307.40046 824.27348,303.837466 824.27348,299.44229 C824.27348,295.047114 827.836474,291.48412 832.23165,291.48412 C836.626826,291.48412 840.18982,295.047114 840.18982,299.44229 C840.18982,303.837466 836.626826,307.40046 832.23165,307.40046 L832.23165,307.40046 Z" id="Shape" fill="#000000" fill-rule="nonzero" opacity="0.1"></path>
            <path d="M782.49312,276.56256 L832.23166,276.56256 L832.23166,322.51972 C832.23166,327.904496 827.866436,332.26972 822.48166,332.26972 L792.24312,332.26972 C786.858344,332.26972 782.49312,327.904496 782.49312,322.51972 L782.49312,276.56256 Z" id="Path" fill="#E6483C" fill-rule="nonzero"></path>
            <path d="M823.27871,276.56262 L823.27871,322.57076 C823.27871,327.92737 818.93632,332.26976 813.57971,332.26976 L818.55356,332.26976 C823.91017,332.26976 828.25256,327.92737 828.25256,322.57076 L828.25256,276.56262 L823.27871,276.56262 Z" id="Path" fill="#000000" fill-rule="nonzero" opacity="0.1"></path>
            <path d="M792.30836,239.48083 C791.446991,239.508256 790.64229,239.916818 790.11185,240.59604 C789.45941,241.7788 790.6417,243.11237 791.72062,243.92504 C793.71387,245.42651 795.81473,246.90136 797.16962,248.99704 C798.52451,251.09272 798.95013,254.01726 797.46906,256.02571 C795.53518,258.6482 790.92136,259.21233 790.47485,262.44001 C790.18819,264.51217 791.97959,266.28031 793.79476,267.32009 C798.27502,269.88649 804.05068,270.57116 807.2959,274.58709 C808.63838,271.82655 811.64112,270.23081 814.63419,269.54937 C817.62726,268.86793 820.73707,268.9188 823.77173,268.45652 C824.777049,268.437338 825.713207,267.940774 826.29292,267.11921 C827.14122,265.39762 824.72348,263.33282 825.55792,261.60448 C826.19303,260.28902 828.05875,260.39118 829.4212,259.86437 C831.63964,259.0066 832.55446,256.1515 831.92482,253.85786 C831.29518,251.56422 829.51663,249.77172 827.64641,248.30211 C822.60611,244.3415 816.54547,242.01229 810.4155,240.33694 C807.5645,239.55774 804.21774,238.33582 801.2565,238.21769 C798.39794,238.10362 795.1377,238.9968 792.30836,239.48083 Z" id="Path" fill="#EEEEEE" fill-rule="nonzero"></path>
            <path d="M443.20908,344.01609 L339.20908,668.01609" id="Path" stroke="#E0E0E0" stroke-width="8"></path>
            <g id="Group" opacity="0.7" transform="translate(191.000000, 0.000000)" fill="url(#linearGradient-2)" fill-rule="nonzero">
                <path d="M332.788,704.50643 C319.9953,705.24822 308.59855,715.96504 308.59855,715.96504 L303.08784,702.29497 L302.63784,702.44128 C305.32999,690.65665 360.10403,447.72184 305.27219,426.77852 C263.13886,410.68552 218.44839,390.77052 183.43401,391.51883 L183.43401,334.12941 L232.52275,334.12941 L232.52275,332.08405 L271.38465,332.08405 C278.83437,326.76284 268.00965,323.10362 255.91141,320.81676 C256.404467,320.252534 256.838891,319.639646 257.20798,318.98755 L319.45075,207.31683 C319.45075,207.31683 333.7683,183.79514 324.56416,172.54564 C315.36002,161.29614 302.06516,201.18074 302.06516,201.18074 L250.93105,274.81385 C250.93105,274.81385 199.32237,221.02336 166.49187,194.27285 C162.848526,190.662289 158.738202,187.555745 154.27043,185.036 C148.27743,180.98142 143.74106,178.88056 141.50407,179.70444 C141.48097,179.71293 141.46293,179.72678 141.44021,179.73571 C136.464915,178.358343 131.326271,177.659806 126.16384,177.65907 L122.07311,177.65907 L122.07311,169.26801 C140.626063,163.140681 155.4827,149.063102 162.59951,130.86675 C174.288931,111.506552 176.441807,87.8510933 168.43942,66.69875 C169.049841,66.6266239 169.637412,66.4232014 170.16176,66.10246 C172.01387,64.91018 172.19708,62.30198 172.01843,60.10656 C170.654504,45.1475861 162.004177,31.8224429 148.89565,24.48775 C143.71414,21.6544 137.77985,19.70223 133.95903,15.19922 C130.67588,11.3299 129.29622,5.91822 125.32341,2.76113 C120.60349,-0.98954 113.78541,-0.34475 107.99374,1.32885 C101.548753,3.19365081 95.4426708,6.07507345 89.90586,9.86441 C83.64106,14.15513 77.98728,19.66753 70.77501,22.04247 C65.65037,23.72998 60.09259,23.69633 54.93543,25.28167 C46.9098922,27.8246953 40.5615858,34.0162548 37.81875,41.97572 C36.505923,46.1925898 36.0089537,50.6210608 36.35445,55.02403 C33.2182169,60.2663807 30.7503745,65.8806147 29.00845,71.73586 C28.62264,71.94428 28.23451,72.14821 27.85225,72.36312 L28.9735,71.85889 C20.993156,98.7959297 29.0399651,127.926527 49.7155,146.94789 C57.7237309,157.373199 68.6815202,165.149859 81.1659,169.268 L81.1659,179.41922 C72.2590205,181.340365 63.7617392,184.820464 56.06606,189.69897 L56.05514,189.68549 C56.05514,189.68549 55.40242,190.08941 54.28504,190.84081 C54.173,190.91603 54.06123,190.99154 53.94973,191.06734 C46.38217,196.20347 21.02403,214.97053 21.88043,235.25009 C21.8470967,236.029583 21.8515267,236.811677 21.89372,237.59637 C20.5092753,243.456809 19.8083572,249.457895 19.80498,255.47964 L19.80498,402.64911 C19.7853321,418.910726 25.2502563,434.703797 35.31636,447.47541 C13.97493,452.25868 0.37402,459.49311 0.37402,467.58941 C0.481127109,468.26699 0.481127109,468.95719 0.37402,469.63477 C0.37402,484.03746 43.4138,495.71316 96.50613,495.71316 C102.92542,495.71316 109.19572,495.54101 115.26278,495.21543 L175.25266,543.77922 L79.12054,698.20422 C79.12054,698.20422 47.41731,722.74862 71.96165,730.93007 C96.50599,739.11152 146.61748,745.24762 146.61748,745.24762 C146.61748,745.24762 154.79893,730.93007 143.54943,724.79397 C132.29993,718.65787 116.9597,721.72597 116.9597,721.72597 L119.00506,709.45378 C119.00506,709.45378 285.70224,566.27829 250.93106,517.18955 C244.27888,507.79828 237.62652,498.10808 230.91706,488.56906 L257.15862,490.96054 L263.13005,715.71754 L263.87696,715.47436 C262.37802,719.88967 251.77568,753.21403 275.27627,747.57461 C300.4341,741.53761 346.20905,720.24302 346.20905,720.24302 C346.20905,720.24302 345.58065,703.7647 332.788,704.50643 Z M232.52277,317.7665 L183.43403,303.51493 L183.43403,261.51898 L236.78778,318.15606 C234.16465,317.89302 232.52277,317.7665 232.52277,317.7665 Z" id="Shape"></path>
            </g>
            <circle id="Oval" fill="#000000" fill-rule="nonzero" cx="292.20908" cy="99.01609" r="72"></circle>
            <path d="M374.20908,264.01609 L429.15621,322.34462 C431.502867,324.835654 434.896619,326.058534 438.292827,325.636841 C441.689034,325.215148 444.680662,323.199423 446.34685,320.21013 L507.20908,211.01613 L490.20908,205.01613 L440.20908,277.01613 C440.20908,277.01613 346.34186,179.17937 333.20908,184.01613 C320.0763,188.85289 374.20908,264.01609 374.20908,264.01609 Z" id="Path" fill="#000000" fill-rule="nonzero"></path>
            <path d="M269.20908,466.01609 L188.20908,676.01609" id="Path" stroke="#BDBDBD" stroke-width="5"></path>
            <path d="M309.20908,466.01609 L390.20908,676.01609" id="Path" stroke="#BDBDBD" stroke-width="5"></path>
            <ellipse id="Oval" fill="#CBCBCB" fill-rule="nonzero" cx="289.20908" cy="467.51609" rx="94" ry="25.5"></ellipse>
            <ellipse id="Oval" fill="#E8B12D" fill-rule="nonzero" cx="289.20908" cy="465.51609" rx="94" ry="25.5"></ellipse>
            <path d="M249.65524,512.15438 L338.34537,539.48372" id="Path" stroke="#BDBDBD" stroke-width="5"></path>
            <path d="M328.76293,512.15438 L240.0728,539.48372" id="Path" stroke="#BDBDBD" stroke-width="5"></path>
            <path d="M290.30373,182.01609 L318.20908,182.01609 C349.137026,182.01609 374.20908,207.088144 374.20908,238.01609 L374.20908,386.01609 L214.20908,386.01609 L214.20908,258.11073 C214.20908,216.084819 248.277819,182.01609 290.30373,182.01609 Z" id="Path" fill="#000000" fill-rule="nonzero"></path>
            <path d="M214.20908,386.01609 L374.20908,386.01609 L374.20908,473.01609 L285.20908,473.01609 C245.996863,473.01609 214.20908,441.228307 214.20908,402.01609 L214.20908,386.01609 Z" id="Path" fill="#0D101D" fill-rule="nonzero"></path>
            <path d="M216.37003,242.05536 L314.20903,335.01609 L422.20903,335.01609 L422.20903,321.01609 L329.20903,294.01609 L249.65523,195.77582 C249.65523,195.77582 213.53097,218.09462 216.37003,242.05536 Z" id="Path" fill="#000000" fill-rule="nonzero" opacity="0.05"></path>
            <path d="M216.37003,240.05536 L314.20903,333.01609 L422.20903,333.01609 L422.20903,319.01609 L329.20903,292.01609 L249.65523,193.77582 C249.65523,193.77582 213.53097,216.09462 216.37003,240.05536 Z" id="Path" fill="#000000" fill-rule="nonzero"></path>
            <path d="M422.20908,319.01609 C422.20908,319.01609 474.20908,323.01609 460.20908,333.01609 L422.20908,333.01609 L422.20908,319.01609 Z" id="Path" fill="#EABD87" fill-rule="nonzero"></path>
            <path d="M490.20908,205.01609 C490.20908,205.01609 503.20908,166.01609 512.20908,177.01609 C521.20908,188.01609 507.20908,211.01609 507.20908,211.01609 L490.20908,205.01609 Z" id="Path" fill="#EABD87" fill-rule="nonzero"></path>
            <polygon id="Path" fill="#000000" fill-rule="nonzero" opacity="0.05" points="214.209 386.016 214.209 390.683 374.209 391.016 374.209 386.016"></polygon>
            <path d="M338.67125,478.56049 L446.29853,488.36884 L452.13753,708.1409 L490.66865,695.59684 C490.66865,695.59684 548.29485,446.59872 493.34497,425.61035 C438.39509,404.62198 378.9967,376.98451 343.53284,399.50816 C308.06898,422.03181 338.67125,478.56049 338.67125,478.56049 Z" id="Path" fill="#0E111E" fill-rule="nonzero"></path>
            <path d="M345.20908,411.01609 C345.20908,411.01609 404.20908,441.01609 412.20908,475.01609" id="Path" fill="#000000" fill-rule="nonzero" opacity="0.1"></path>
            <path d="M282.21006,472.01609 L366.20906,540.01609 L272.20906,691.01609 L311.20906,702.01609 C311.20906,702.01609 474.20906,562.01609 440.20906,514.01609 C406.20906,466.01609 372.20906,410.01609 330.20906,409.01609 C288.20906,408.01609 282.21006,472.01609 282.21006,472.01609 Z" id="Path" fill="#0E111E" fill-rule="nonzero"></path>
            <polygon id="Path" fill="#000000" fill-rule="nonzero" opacity="0.05" points="414.209 251.016 435.209 287.016 440.209 277.016"></polygon>
            <path d="M272.20908,691.01609 C272.20908,691.01609 241.20908,715.01609 265.20908,723.01609 C289.20908,731.01609 338.20908,737.01609 338.20908,737.01609 C338.20908,737.01609 346.20908,723.01609 335.20908,717.01609 C324.20908,711.01609 309.20908,714.01609 309.20908,714.01609 L311.20908,702.01609 L272.20908,691.01609 Z" id="Path" fill="#212121" fill-rule="nonzero"></path>
            <path d="M453.03157,707.43084 C453.03157,707.43084 439.41457,745.19463 464.01439,739.29146 C488.61421,733.38829 533.37397,712.56602 533.37397,712.56602 C533.37397,712.56602 532.75946,696.45322 520.25051,697.17853 C507.74156,697.90384 496.59759,708.38296 496.59759,708.38296 L491.20908,695.01609 L453.03157,707.43084 Z" id="Path" fill="#232323" fill-rule="nonzero"></path>
            <rect id="Rectangle" fill="#EABD87" fill-rule="nonzero" x="274.20908" y="147.01609" width="40" height="60" rx="19.99998"></rect>
            <path d="M294.20908,149.01609 C283.163408,149.01609 274.20908,157.970358 274.20908,169.01603 L274.20908,175.81113 C287.200021,180.08441 301.218139,180.08441 314.20908,175.81113 L314.20908,169.01603 C314.20908,157.970358 305.254752,149.01609 294.20908,149.01609 L294.20908,149.01609 Z" id="Path" fill="#000000" fill-rule="nonzero" opacity="0.05"></path>
            <circle id="Oval" fill="#EABD87" fill-rule="nonzero" cx="294.20908" cy="113.01609" r="64"></circle>
            <path d="M230.20908,110.11199 C230.20908,110.11199 246.20908,114.23525 255.20908,96.05039 C264.20908,77.86553 271.20908,67.94653 308.20908,78.69213 C345.20908,89.43773 352.65227,90.74876 354.43068,80.58752 C355.64592,73.64401 342.48934,56.77839 334.03499,46.79313 C329.91062,41.92193 323.18025,39.01613 315.98721,39.01613 L274.20908,39.01613 L249.20908,50.58831 L230.20908,67.11999 L226.20908,89.43776 L230.20908,110.11199 Z" id="Path" fill="#000000" fill-rule="nonzero" opacity="0.05"></path>
            <path d="M230.20908,108.11199 C230.20908,108.11199 246.20908,112.23525 255.20908,94.05039 C264.20908,75.86553 271.20908,65.94653 308.20908,76.69213 C345.20908,87.43773 352.65227,88.74876 354.43068,78.58752 C355.64592,71.64401 342.48934,54.77839 334.03499,44.79313 C329.91062,39.92193 323.18025,37.01613 315.98721,37.01613 L274.20908,37.01613 L249.20908,48.58831 L230.20908,65.11999 L226.20908,87.43776 L230.20908,108.11199 Z" id="Path" fill="#000000" fill-rule="nonzero"></path>
            <ellipse id="Oval" fill="#EABD87" fill-rule="nonzero" cx="236.70908" cy="108.01609" rx="6.5" ry="13"></ellipse>
            <path d="M232.06338,74.56535 C230.58016,66.19404 229.12297,57.40352 231.82338,49.3421 C234.505373,41.5591802 240.71286,35.5049465 248.56038,33.01831 C253.60315,31.46812 259.03766,31.50106 264.04862,29.85097 C271.10096,27.52865 276.62934,22.13856 282.75517,17.94297 C288.169175,14.2376445 294.139845,11.4201202 300.44191,9.5967 C306.10516,7.96019 312.772,7.3297 317.38718,10.99723 C321.27194,14.08429 322.62099,19.37591 325.83132,23.15943 C329.56738,27.56257 335.37007,29.47143 340.43662,32.24199 C353.254438,39.4139511 361.712939,52.4435372 363.04662,67.07073 C363.22131,69.21747 363.04216,71.76786 361.23111,72.93367 C360.106099,73.5058943 358.838517,73.7372741 357.58389,73.59942 C332.00526,73.23385 306.39589,72.8667 280.9226,70.51861 C273.00374,69.78861 265.0692,68.86639 257.12247,69.16746 C244.82356,69.6469735 232.813578,73.0356489 222.07789,79.05546" id="Path" fill="#000000" fill-rule="nonzero"></path>
            <rect id="Rectangle" fill="#E8E8E8" fill-rule="nonzero" x="0" y="645.26708" width="154.0855" height="65.5683" rx="32.78412"></rect>
            <path d="M575.87575,411.18276 C576.683962,411.154759 577.324681,410.491457 577.324681,409.68276 C577.324681,408.874063 576.683962,408.210761 575.87575,408.18276 C575.067538,408.210761 574.426819,408.874063 574.426819,409.68276 C574.426819,410.491457 575.067538,411.154759 575.87575,411.18276 L575.87575,411.18276 Z" id="Path" fill="url(#linearGradient-3)" fill-rule="nonzero"></path>
            <path d="M795.97132,344.01609 L899.97132,714.10762" id="Path" stroke="#E0E0E0" stroke-width="8"></path>
            <rect id="Rectangle" fill="#E0E0E0" fill-rule="nonzero" x="338.7871" y="333.17819" width="561.6062" height="21.88496"></rect>
            <rect id="Rectangle" fill="#D7D7D7" fill-rule="nonzero" x="477.20908" y="328.01609" width="92" height="13" rx="6.49999"></rect>
            <g id="Group" opacity="0.7" transform="translate(533.000000, 183.000000)" fill="url(#linearGradient-4)" fill-rule="nonzero">
                <rect id="Rectangle" x="0.20908" y="0.07696" width="228.65948" height="158.10123" rx="28.21956"></rect>
            </g>
            <rect id="Rectangle" fill="#7B7C7C" fill-rule="nonzero" x="537.2857" y="185.99396" width="216.60901" height="155.18423" rx="26.83505"></rect>
            <rect id="Rectangle" fill="#CCCCCC" fill-rule="nonzero" x="540.2857" y="185.99396" width="216.60901" height="155.18423" rx="26.83505"></rect>
            <circle id="Oval" fill="#FFFFFF" fill-rule="nonzero" cx="658.70908" cy="262.51609" r="7"></circle>
        </g>
    </g>
</svg>