<?xml version="1.0" encoding="UTF-8"?>
<svg width="896px" height="644px" viewBox="0 0 896 644" version="1.1" xmlns="http://www.w3.org/2000/svg" xmlns:xlink="http://www.w3.org/1999/xlink">
    <!-- Generator: Sketch 55.2 (78181) - https://sketchapp.com -->
    <title>Untitled</title>
    <desc>Created with Sketch.</desc>
    <g id="Page-1" stroke="none" stroke-width="1" fill="none" fill-rule="evenodd" opacity="0.5">
        <g id="Work" fill-rule="nonzero">
            <g id="Group" transform="translate(330.000000, 215.000000)" fill="#47E6B1">
                <rect id="Rectangle" x="7.59736" y="0.28636" width="3" height="17"></rect>
                <rect id="Rectangle" transform="translate(9.097360, 8.786360) rotate(90.000000) translate(-9.097360, -8.786360) " x="7.59736" y="0.28636" width="3" height="17"></rect>
            </g>
            <g id="Group" transform="translate(505.000000, 4.000000)" fill="#47E6B1">
                <rect id="Rectangle" x="7.59736" y="0" width="3" height="17"></rect>
                <rect id="Rectangle" transform="translate(9.097360, 8.500000) rotate(90.000000) translate(-9.097360, -8.500000) " x="7.59736" y="0" width="3" height="17"></rect>
            </g>
            <g id="Group" transform="translate(878.000000, 129.000000)" fill="#47E6B1">
                <rect id="Rectangle" x="7.59736" y="0" width="3" height="17"></rect>
                <rect id="Rectangle" transform="translate(9.097360, 8.500000) rotate(90.000000) translate(-9.097360, -8.500000) " x="7.59736" y="1.13686838e-13" width="3" height="17"></rect>
            </g>
            <path d="M551.28513,255.803178 C549.573683,255.057801 548.693039,253.147687 549.23764,251.362178 C549.280213,251.229947 549.307035,251.093154 549.31755,250.954638 L549.31755,250.954638 C549.366931,250.143232 548.878745,249.395338 548.116076,249.113998 C547.353406,248.832657 546.496482,249.084354 546.0071,249.733448 L546.0071,249.733448 C545.925137,249.845606 545.856697,249.967046 545.8032,250.095248 C545.057824,251.806694 543.147708,252.687334 541.3622,252.142728 C541.229968,252.100162 541.093176,252.073344 540.95466,252.062828 L540.95466,252.062828 C540.143248,252.013431 539.395341,252.501617 539.113997,253.264294 C538.832654,254.02697 539.084361,254.883903 539.73347,255.373278 L539.73347,255.373278 C539.845633,255.455234 539.967072,255.523674 540.09527,255.577178 C541.806724,256.322547 542.68737,258.232667 542.14276,260.018178 C542.100191,260.150409 542.073372,260.287201 542.06286,260.425718 L542.06286,260.425718 C542.01347,261.237124 542.501654,261.985023 543.264325,262.266365 C544.026996,262.547707 544.883923,262.296007 545.3733,261.646908 L545.3733,261.646908 C545.455261,261.534748 545.523701,261.413308 545.5772,261.285108 C546.322573,259.573658 548.232692,258.693016 550.0182,259.237628 C550.150431,259.280197 550.287224,259.307016 550.42574,259.317528 L550.42574,259.317528 C551.237152,259.366924 551.985059,258.878738 552.266403,258.116062 C552.547746,257.353385 552.296039,256.496452 551.64693,256.007078 L551.64693,256.007078 C551.534769,255.925118 551.413329,255.856679 551.28513,255.803178 L551.28513,255.803178 Z" id="Path" fill="#4D8AF0"></path>
            <path d="M288.28513,554.803178 C286.573683,554.057801 285.693039,552.147687 286.23764,550.362178 C286.280213,550.229947 286.307035,550.093154 286.31755,549.954638 L286.31755,549.954638 C286.366931,549.143232 285.878745,548.395338 285.116076,548.113998 C284.353406,547.832657 283.496482,548.084354 283.0071,548.733448 L283.0071,548.733448 C282.925137,548.845606 282.856697,548.967046 282.8032,549.095248 C282.057824,550.806694 280.147708,551.687334 278.3622,551.142728 C278.229968,551.100162 278.093176,551.073344 277.95466,551.062828 L277.95466,551.062828 C277.143248,551.013431 276.395341,551.501617 276.113997,552.264294 C275.832654,553.02697 276.084361,553.883903 276.73347,554.373278 L276.73347,554.373278 C276.845633,554.455234 276.967072,554.523674 277.09527,554.577178 C278.806724,555.322547 279.68737,557.232667 279.14276,559.018178 C279.100191,559.150409 279.073372,559.287201 279.06286,559.425718 L279.06286,559.425718 C279.01347,560.237124 279.501654,560.985023 280.264325,561.266365 C281.026996,561.547707 281.883923,561.296007 282.3733,560.646908 L282.3733,560.646908 C282.455261,560.534748 282.523701,560.413308 282.5772,560.285108 C283.322573,558.573658 285.232692,557.693016 287.0182,558.237628 C287.150431,558.280197 287.287224,558.307016 287.42574,558.317528 L287.42574,558.317528 C288.237152,558.366924 288.985059,557.878738 289.266403,557.116062 C289.547746,556.353385 289.296039,555.496452 288.64693,555.007078 L288.64693,555.007078 C288.534769,554.925118 288.413329,554.856679 288.28513,554.803178 L288.28513,554.803178 Z" id="Path" fill="#4D8AF0"></path>
            <path d="M506.48786,637.24268 C504.77641,636.497307 503.895765,634.58719 504.44037,632.80168 C504.48294,632.669449 504.509759,632.532656 504.52027,632.39414 L504.52027,632.39414 C504.56966,631.582733 504.081476,630.834834 503.318805,630.553492 C502.556134,630.27215 501.699207,630.523851 501.20983,631.17295 L501.20983,631.17295 C501.127873,631.285113 501.059433,631.406552 501.00593,631.53475 C500.260561,633.246203 498.350441,634.12685 496.56493,633.58224 C496.432699,633.539671 496.295906,633.512852 496.15739,633.50234 L496.15739,633.50234 C495.345983,633.45295 494.598084,633.941134 494.316742,634.703805 C494.0354,635.466476 494.287101,636.323403 494.9362,636.81278 L494.9362,636.81278 C495.048361,636.894739 495.169801,636.963179 495.298,637.01668 C497.009447,637.762056 497.890091,639.67217 497.34549,641.45768 C497.302917,641.589911 497.276095,641.726703 497.26558,641.86522 L497.26558,641.86522 C497.216199,642.676625 497.704385,643.424519 498.467055,643.70586 C499.229724,643.9872 500.086649,643.735504 500.57603,643.08641 L500.57603,643.08641 C500.657993,642.974251 500.726433,642.852811 500.77993,642.72461 C501.52531,641.013167 503.43542,640.132524 505.22093,640.67712 C505.353161,640.719693 505.489953,640.746515 505.62847,640.75703 L505.62847,640.75703 C506.439882,640.806426 507.187789,640.318241 507.469133,639.555564 C507.750476,638.792887 507.498769,637.935955 506.84966,637.44658 L506.84966,637.44658 C506.7375,637.364619 506.61606,637.296179 506.48786,637.24268 L506.48786,637.24268 Z" id="Path" fill="#4D8AF0"></path>
            <path d="M12.28968,215.30545 C10.5782367,214.56007 9.69759429,212.64996 10.24219,210.86445 C10.2847632,210.732219 10.3115853,210.595427 10.3221,210.45691 L10.3221,210.45691 C10.3714963,209.645498 9.88331068,208.897591 9.120634,208.616247 C8.35795732,208.334904 7.50102453,208.586611 7.01165,209.23572 L7.01165,209.23572 C6.92968933,209.34788 6.8612495,209.46932 6.80775,209.59752 C6.06237736,211.30897 4.15226023,212.189615 2.36675,211.64501 C2.23451797,211.602441 2.09772618,211.575619 1.95921,211.5651 L1.95921,211.5651 C1.14779776,211.515704 0.399890575,212.003889 0.118547212,212.766566 C-0.162796151,213.529243 0.0889110897,214.386175 0.73802,214.87555 L0.73802,214.87555 C0.850185006,214.957503 0.971623698,215.025943 1.09982,215.07945 C2.81127687,215.824816 3.69192505,217.734939 3.14731,219.52045 C3.10473997,219.652681 3.07792122,219.789474 3.06741,219.92799 L3.06741,219.92799 C3.01802045,220.739397 3.50620442,221.487296 4.26887518,221.768638 C5.03154594,222.04998 5.88847273,221.798279 6.37785,221.14918 L6.37785,221.14918 C6.45980698,221.037017 6.52824656,220.915578 6.58175,220.78738 C7.32711918,219.075927 9.23723945,218.19528 11.02275,218.73989 C11.154981,218.782463 11.2917732,218.809285 11.43029,218.8198 L11.43029,218.8198 C12.2416953,218.869181 12.989589,218.380995 13.2709296,217.618325 C13.5522703,216.855656 13.3005738,215.998731 12.65148,215.50935 L12.65148,215.50935 C12.5393189,215.427391 12.4178795,215.358951 12.28968,215.30545 Z" id="Path" fill="#4D8AF0"></path>
            <path d="M877.48786,367.24268 C875.77641,366.497307 874.895765,364.58719 875.44037,362.80168 C875.48294,362.669449 875.509759,362.532656 875.52027,362.39414 L875.52027,362.39414 C875.56966,361.582733 875.081476,360.834834 874.318805,360.553492 C873.556134,360.27215 872.699207,360.523851 872.20983,361.17295 L872.20983,361.17295 C872.127873,361.285113 872.059433,361.406552 872.00593,361.53475 C871.260561,363.246203 869.350441,364.12685 867.56493,363.58224 C867.432699,363.539671 867.295906,363.512852 867.15739,363.50234 L867.15739,363.50234 C866.345983,363.45295 865.598084,363.941134 865.316742,364.703805 C865.0354,365.466476 865.287101,366.323403 865.9362,366.81278 L865.9362,366.81278 C866.048361,366.894739 866.169801,366.963179 866.298,367.01668 C868.009447,367.762056 868.890091,369.67217 868.34549,371.45768 C868.302917,371.589911 868.276095,371.726703 868.26558,371.86522 L868.26558,371.86522 C868.216199,372.676625 868.704385,373.424519 869.467055,373.70586 C870.229724,373.9872 871.086649,373.735504 871.57603,373.08641 L871.57603,373.08641 C871.657993,372.974251 871.726433,372.852811 871.77993,372.72461 C872.52531,371.013167 874.43542,370.132524 876.22093,370.67712 C876.353161,370.719693 876.489953,370.746515 876.62847,370.75703 L876.62847,370.75703 C877.439882,370.806426 878.187789,370.318241 878.469133,369.555564 C878.750476,368.792887 878.498769,367.935955 877.84966,367.44658 L877.84966,367.44658 C877.7375,367.364619 877.61606,367.296179 877.48786,367.24268 Z" id="Path" fill="#4D8AF0"></path>
            <circle id="Oval" fill="#F55F44" cx="107.59736" cy="459.28636" r="6"></circle>
            <circle id="Oval" fill="#F55F44" cx="162" cy="168" r="6"></circle>
            <circle id="Oval" fill="#F55F44" cx="48" cy="6" r="6"></circle>
            <circle id="Oval" fill="#4D8AF0" cx="321.59736" cy="10" r="6"></circle>
            <circle id="Oval" fill="#47E6B1" cx="463.79555" cy="461.93723" r="6"></circle>
            <circle id="Oval" fill="#47E6B1" cx="655" cy="410" r="6"></circle>
            <circle id="Oval" fill="#F55F44" cx="809.79555" cy="611.93723" r="6"></circle>
        </g>
    </g>
</svg>