
<svg width="843px" height="573px" viewBox="0 0 843 573" version="1.1" xmlns="http://www.w3.org/2000/svg" xmlns:xlink="http://www.w3.org/1999/xlink">
    <g id="Page-1" stroke="none" stroke-width="1" fill="none" fill-rule="evenodd">
        <g id="Contact2" fill-rule="nonzero">
            <path d="M756.01899,559.40511 C737.11835,573.02111 712.62453,573.70482 688.94861,572.03211 C685.64261,571.79885 682.35993,571.52511 679.1077,571.22983 C679.08805,571.22473 679.06226,571.22655 679.04229,571.22147 C678.886,571.2066 678.72939,571.19171 678.57984,571.18284 C677.90858,571.12004 677.237,571.0573 676.57204,570.99409 L676.72912,571.29383 L677.22212,572.22392 C677.04494,571.91264 676.86789,571.60782 676.69071,571.29653 C676.63859,571.2031 676.58018,571.11007 676.52838,571.01653 C670.39501,560.34336 664.31179,549.27811 662.76009,537.09053 C661.15619,524.44038 665.66379,510.11623 676.79736,503.89864 C678.25749,503.085572 679.803783,502.437962 681.40754,501.96783 C682.0734,501.76549 682.74827,501.60138 683.43079,501.45613 C691.932779,499.568243 700.791603,502.418016 706.598271,508.90882 C712.40494,515.399623 714.254497,524.519882 711.43521,532.76 C720.87448,523.08089 719.11367,507.37892 715.85757,494.256 C712.59518,481.13344 708.64578,466.53114 715.28118,454.74438 C718.96969,448.18375 725.45618,444.11332 732.73553,442.47357 C732.95884,442.42542 733.18184,442.37734 733.40561,442.33568 C742.078769,440.578906 751.095435,442.158781 758.65461,446.75974 C772.57343,455.53086 779.72233,472.16113 782.04254,488.45182 C785.78088,514.66654 777.50793,543.923 756.01899,559.40511 Z" id="Path" fill="#567E52"></path>
            <path d="M749.91667,517.38193 C749.367977,523.164342 747.978958,528.835832 745.79346,534.21737 C743.779332,538.979606 741.064531,543.413954 737.73908,547.37337 C730.825532,555.465289 722.069828,561.778613 712.20845,565.7823 C704.749438,568.837199 696.934227,570.937108 688.9486,572.03211 C685.6426,571.79885 682.35992,571.52511 679.10769,571.22983 C679.08804,571.22473 679.06225,571.22655 679.04228,571.22147 C678.88599,571.2066 678.72938,571.19171 678.57983,571.18284 C677.90857,571.12004 677.23699,571.0573 676.57203,570.99409 L676.72911,571.29383 L677.22211,572.22392 C677.04493,571.91264 676.86788,571.60782 676.6907,571.29653 C676.63858,571.2031 676.58017,571.11007 676.52837,571.01653 C688.676482,558.912956 694.200795,541.669884 691.34788,524.7603 C689.876632,516.485701 686.470609,508.675953 681.40753,501.96784 C682.07339,501.7655 682.74826,501.60139 683.43078,501.45614 C685.354982,504.08673 687.042827,506.882302 688.4746,509.8102 C693.612083,520.251867 695.251101,532.070203 693.14905,543.51588 C691.194833,553.873286 686.326153,563.458161 679.11466,571.14511 C679.74611,571.10061 680.38366,571.04919 681.00766,570.99225 C692.82598,569.99097 704.62024,567.45025 715.33957,562.2461 C724.502227,557.905621 732.456981,551.378628 738.5032,543.24 C744.9952,534.28664 747.85592,523.517 748.34734,512.5712 C748.725526,500.778713 747.489488,488.989891 744.67357,477.5323 C741.942807,465.849293 737.792668,454.544345 732.31568,443.8695 C732.061311,443.366657 732.245977,442.752682 732.73553,442.47359 C732.932004,442.34115 733.172807,442.291598 733.40561,442.3357 C733.636388,442.396768 733.826698,442.559786 733.92248,442.77845 C734.59814,444.09715 735.26123,445.41673 735.8991,446.75106 C741.211574,457.865322 745.122748,469.596505 747.54277,481.67511 C749.8921,493.32724 751.14606,505.51639 749.91667,517.38193 Z" id="Path" fill="#FFFFFF"></path>
            <path d="M35.15979,182.126 C34.5970937,182.126 34.0394217,182.020101 33.51526,181.81545 C31.7797734,181.148691 30.6373337,179.478305 30.64526,177.61916 L30.64526,130.58596 C30.6415403,127.27119 27.9553895,124.584928 24.64062,124.58107 L15.00928,124.58107 C6.72372748,124.571784 0.00927604794,117.857333 -9.99999997e-06,109.57178 L-9.99999997e-06,15.00928 C0.00928155767,6.72373139 6.72373138,0.00928603739 15.00928,2.84217094e-14 L354.73462,2.84217094e-14 C363.020162,0.00929704629 369.734603,6.72373757 369.7439,15.00928 L369.7439,109.57178 C369.734597,117.857319 363.020159,124.571753 354.73462,124.58105 L92.51499,124.58105 C90.8321931,124.583012 89.2270145,125.289148 88.08848,126.52832 L38.46665,180.66162 C37.6194051,181.593148 36.4189832,182.126 35.15979,182.126 Z M15.00928,2 C7.82781196,2.00810656 2.00810208,7.82781196 1.99999,15.00928 L1.99999,109.57178 C2.00810758,116.75324 7.82780976,122.572938 15.00927,122.58105 L24.64061,122.58105 C29.059476,122.586049 32.6403894,126.167074 32.64525,130.58594 L32.64525,177.61914 C32.6453201,178.651083 33.2788209,179.577165 34.2405697,179.951257 C35.2023185,180.325348 36.295077,180.07073 36.99242,179.31006 L86.61425,125.17676 C88.1319604,123.52488 90.2717558,122.583595 92.515,122.58105 L354.73462,122.58105 C361.91608,122.572938 367.735782,116.75324 367.7439,109.57178 L367.7439,15.00928 C367.735788,7.82781586 361.916084,2.00811207 354.73462,2 L15.00928,2 Z" id="Shape" fill="#CCCCCC"></path>
            <circle id="Oval" fill="#000000" cx="36.81607" cy="29.45637" r="13.13371"></circle>
            <path d="M339.41192,102.129555 L30.33199,102.129555 C27.8274779,102.132542 25.5119319,100.79812 24.2588112,98.6296458 C23.0056904,96.461172 23.0056904,93.788638 24.2588112,91.6201642 C25.5119319,89.4516905 27.8274779,88.1172675 30.33199,88.120255 L339.41192,88.120255 C341.916432,88.1172675 344.231978,89.4516905 345.485099,91.6201642 C346.73822,93.788638 346.73822,96.461172 345.485099,98.6296458 C344.231978,100.79812 341.916432,102.132542 339.41192,102.129555 L339.41192,102.129555 Z" id="Path" fill="#000000"></path>
            <path d="M238.72016,72.359815 L30.33199,72.359815 C27.8274779,72.3628025 25.5119319,71.0283795 24.2588112,68.8599058 C23.0056904,66.691432 23.0056904,64.018898 24.2588112,61.8504242 C25.5119319,59.6819505 27.8274779,58.3475275 30.33199,58.350515 L238.72016,58.350515 C241.224672,58.3475275 243.540218,59.6819505 244.793339,61.8504242 C246.04646,64.018898 246.04646,66.691432 244.793339,68.8599058 C243.540218,71.0283795 241.224672,72.3628025 238.72016,72.359815 L238.72016,72.359815 Z" id="Path" fill="#000000"></path>
            <path d="M35.15979,515.72217 C34.5970933,515.72217 34.0394203,515.616276 33.51526,515.41162 C31.7798628,514.744748 30.6374715,513.074432 30.64526,511.21533 L30.64526,464.18213 C30.6415403,460.867362 27.9553879,458.181102 24.64062,458.17725 L15.00928,458.17725 C6.72374308,458.167964 0.00929808683,451.453537 -9.99999997e-06,443.168 L-9.99999997e-06,348.6055 C0.00928154712,340.319955 6.72372529,333.605512 15.00927,333.59622 L354.73462,333.59622 C363.020162,333.605517 369.734603,340.319958 369.7439,348.6055 L369.7439,443.168 C369.734603,451.453542 363.020162,458.167983 354.73462,458.17728 L92.51499,458.17728 C90.8321944,458.179238 89.2270156,458.88537 88.08848,460.12454 L38.46665,514.25784 C37.6193992,515.189354 36.4189766,515.72217 35.15979,515.72217 Z M15.00928,335.59617 C7.82780416,335.604277 2.00809106,341.423994 1.99999,348.60547 L1.99999,443.168 C2.00810207,450.349464 7.82780586,456.169168 15.00927,456.17728 L24.64061,456.17728 C29.0594744,456.182273 32.6403893,459.763295 32.64525,464.18216 L32.64525,511.21536 C32.6453201,512.247303 33.2788209,513.173385 34.2405697,513.547477 C35.2023185,513.921568 36.295077,513.66695 36.99242,512.90628 L86.61425,458.77298 C88.1319644,457.121107 90.2717581,456.179826 92.515,456.17728 L354.73462,456.17728 C361.916084,456.169168 367.735788,450.349464 367.7439,443.168 L367.7439,348.6055 C367.735788,341.424036 361.916084,335.604332 354.73462,335.59617 L15.00928,335.59617 Z" id="Shape" fill="#CCCCCC"></path>
            <path d="M536.84299,342.35742 C535.583854,342.35742 534.38348,341.824627 533.53635,340.89307 L483.91428,286.75977 C482.775828,285.520623 481.170732,284.814486 479.48801,284.8125 L217.26843,284.8125 C208.982889,284.803203 202.268452,278.088761 202.25916,269.80322 L202.25916,175.24072 C202.268457,166.955183 208.982893,160.240747 217.26843,160.23145 L556.99365,160.23145 C565.279191,160.240742 571.993633,166.955179 572.00293,175.24072 L572.00293,269.80322 C571.993638,278.088765 565.279195,284.803208 556.99365,284.8125 L547.3623,284.8125 C544.04752,284.816319 541.361351,287.5026 541.35767,290.81738 L541.35767,337.85059 C541.365629,339.709664 540.223081,341.379943 538.48755,342.04639 C537.96347,342.251415 537.405747,342.35742 536.84299,342.35742 L536.84299,342.35742 Z M217.2684,162.23142 C210.086944,162.239538 204.267248,168.059234 204.25913,175.24069 L204.25913,269.80319 C204.267242,276.98465 210.08694,282.804352 217.2684,282.81247 L479.48804,282.81247 C481.731187,282.814972 483.870886,283.756269 485.38843,285.40817 L535.0105,339.54147 C535.70785,340.302116 536.800595,340.556721 537.762333,340.182636 C538.724071,339.80855 539.357575,338.88249 539.35767,337.85056 L539.35767,290.81738 C539.362525,286.398517 542.943437,282.817493 547.3623,282.8125 L556.99365,282.8125 C564.175114,282.804388 569.994818,276.984684 570.00293,269.80322 L570.00293,175.24072 C569.994812,168.05926 564.17511,162.239562 556.99365,162.23142 L217.2684,162.23142 Z" id="Shape" fill="#A4A3B1"></path>
            <circle id="Oval" fill="#000000" cx="36.81607" cy="363.05254" r="13.13371"></circle>
            <path d="M30.33199,435.72574 C27.8274779,435.728722 25.5119319,434.3943 24.2588112,432.225826 C23.0056904,430.057352 23.0056904,427.384818 24.2588112,425.216344 C25.5119319,423.04787 27.8274779,421.713448 30.33199,421.71643 L339.41192,421.71643 C343.280479,421.71643 346.416565,424.852526 346.416565,428.721085 C346.416565,432.589644 343.280479,435.72574 339.41192,435.72574 L30.33199,435.72574 Z" id="Path" fill="#000000"></path>
            <path d="M238.72016,405.956005 L30.33199,405.956005 C27.8274779,405.958992 25.5119319,404.62457 24.2588112,402.456096 C23.0056904,400.287622 23.0056904,397.615088 24.2588112,395.446614 C25.5119319,393.27814 27.8274779,391.943718 30.33199,391.946705 L238.72016,391.946705 C241.224672,391.943718 243.540218,393.27814 244.793339,395.446614 C246.04646,397.615088 246.04646,400.287622 244.793339,402.456096 C243.540218,404.62457 241.224672,405.958992 238.72016,405.956005 L238.72016,405.956005 Z" id="Path" fill="#000000"></path>
            <circle id="Oval" fill="#000000" cx="239.07517" cy="188.81202" r="13.13371"></circle>
            <path d="M541.67099,261.4852 L232.5911,261.4852 C228.722544,261.4852 225.58646,258.349116 225.58646,254.48056 C225.58646,250.612004 228.722544,247.47592 232.5911,247.47592 L541.67099,247.47592 C545.539546,247.47592 548.67563,250.612004 548.67563,254.48056 C548.67563,258.349116 545.539546,261.4852 541.67099,261.4852 Z" id="Path" fill="#000000"></path>
            <path d="M440.97926,231.715475 L232.5911,231.715475 C230.086588,231.718462 227.771042,230.38404 226.517921,228.215566 C225.2648,226.047092 225.2648,223.374558 226.517921,221.206084 C227.771042,219.03761 230.086588,217.703188 232.5911,217.706175 L440.97926,217.706175 C443.483772,217.703188 445.799318,219.03761 447.052439,221.206084 C448.30556,223.374558 448.30556,226.047092 447.052439,228.215566 C445.799318,230.38404 443.483772,231.718462 440.97926,231.715475 L440.97926,231.715475 Z" id="Path" fill="#000000"></path>
            <path d="M541.53636,360.35872 C542.143929,357.445435 544.010707,354.950901 546.634373,353.546358 C549.258039,352.141814 552.369079,351.971543 555.13036,353.08136 L578.58966,326.12509 L583.57249,344.01378 L560.53121,366.86938 C558.310624,371.485943 552.988056,373.712016 548.141966,372.050971 C543.295877,370.389926 540.458046,365.366794 541.5364,360.35872 L541.53636,360.35872 Z" id="Path" fill="#EABD87"></path>
            <circle id="Oval" fill="#EABD87" cx="670.29019" cy="209.30068" r="24.56103"></circle>
            <polygon id="Path" fill="#FFFFFF" points="641.436 547.373 629.177 547.372 623.344 500.084 641.439 500.085"></polygon>
            <path d="M644.56299,559.25707 L605.03247,559.25561 L605.03247,558.75561 C605.03247,554.67487 606.653486,550.761257 609.539028,547.875761 C612.42457,544.990266 616.33821,543.36938 620.41895,543.36938 L620.41995,543.36938 L644.56375,543.37038 L644.56299,559.25707 Z" id="Path" fill="#2F2E41"></path>
            <polygon id="Path" fill="#FFFFFF" points="678.436 560.373 666.177 560.372 664.479 514.214 678.439 513.085"></polygon>
            <path d="M681.56299,572.25707 L642.03247,572.25561 L642.03247,571.75561 C642.03247,567.67487 643.653486,563.761257 646.539028,560.875761 C649.42457,557.990266 653.33821,556.36938 657.41895,556.36938 L657.41995,556.36938 L681.56375,556.37038 L681.56299,572.25707 Z" id="Path" fill="#2F2E41"></path>
            <path d="M674.94939,551.74336 L665.40251,550.61936 C663.163381,550.350608 661.466507,548.469942 661.42863,546.21506 L659.63957,421.87619 C659.628927,421.150044 659.099576,420.535842 658.382952,420.418148 C657.666329,420.300453 656.968336,420.713082 656.726,421.39768 L643.48039,458.79707 L644.42766,528.89863 C644.461049,531.302368 642.598563,533.307545 640.1989,533.45137 L627.73503,533.98066 C625.370347,534.114977 623.301859,532.403819 622.99064,530.05586 L616.48088,450.75508 L616.47673,450.70527 L626.35393,367.88594 L700.53703,373.25312 L679.94426,547.802 C679.674245,550.065095 677.757092,551.77035 675.47795,551.774662 C675.301295,551.774662 675.124789,551.764394 674.94939,551.74336 L674.94939,551.74336 Z" id="Path" fill="#1B1A26"></path>
            <path d="M626.67058,375.22773 C625.317125,374.505297 624.428336,373.139634 624.31584,371.60957 C624.31584,371.60957 630.98674,330.12519 633.43132,329.34687 L628.08269,284.98359 C626.78845,274.052801 629.95366,263.061642 636.8632,254.49336 C643.519142,246.178359 653.285265,240.946108 663.89499,240.01094 C664.64255,239.943547 665.38604,239.892113 666.12546,239.85664 C678.970867,239.168718 691.342153,244.799904 699.25946,254.93864 C707.472004,265.164514 710.167824,278.758922 706.47895,291.34489 L703.47919,301.78434 L703.47919,374.7404 C703.472733,376.184442 702.781963,377.539892 701.61737,378.39372 C692.27631,385.24919 681.72037,387.67302 671.46186,387.67302 C652.05099,387.67302 633.70476,378.99336 626.67058,375.22773 Z" id="Path" fill="#000000"></path>
            <path d="M569.08131,361.87712 L556.17889,352.229 C555.155157,351.463716 554.505211,350.299153 554.391329,349.026079 C554.277447,347.753004 554.710379,346.491573 555.58203,345.55674 L632.44503,263.08245 C637.543822,257.658957 645.841143,256.776807 651.96629,261.007 L651.9665,261.00712 C655.622852,263.556239 657.95392,267.60138 658.326105,272.043046 C658.698291,276.484712 657.07292,280.861379 653.89178,283.98344 L574.92799,361.48515 C573.50218,362.898192 571.309465,363.187929 569.56557,362.19372 C569.397696,362.098405 569.235959,361.992664 569.08131,361.87712 Z" id="Path" fill="#000000"></path>
            <path d="M667.82989,350.95717 C668.971547,348.208901 671.271884,346.107474 674.111921,345.218345 C676.951958,344.329216 680.039956,344.743719 682.54499,346.35032 L710.6314,324.25659 L712.18106,342.76152 L685.27209,360.90509 C682.227358,365.02495 676.582402,366.216407 672.132426,363.678425 C667.682451,361.140442 665.83403,355.675239 667.82989,350.95717 L667.82989,350.95717 Z" id="Path" fill="#EABD87"></path>
            <path d="M692.96892,359.58223 C691.456219,359.112219 690.305839,357.875836 689.94592,356.33323 L687.10876,344.41723 C686.683478,342.687907 687.333299,340.871866 688.75915,339.80492 L707.84802,319.16039 L679.7694,275.86449 C675.399201,270.482715 675.209427,262.830271 679.30749,257.23849 C682.541318,252.828455 687.889889,250.488852 693.32342,251.107561 C698.756951,251.726269 703.442603,255.208456 705.60217,260.23263 L731.70617,311.04317 C737.078587,321.493752 733.756906,334.311944 723.98517,340.8381 L697.30852,358.6584 C696.491642,359.389372 695.434239,359.794014 694.33806,359.79512 C693.873487,359.79512 693.411753,359.722684 692.96892,359.58223 L692.96892,359.58223 Z" id="Path" fill="#000000"></path>
            <path d="M688.48951,231.25775 C687.316441,231.961761 685.882576,232.079836 684.610144,231.577207 C683.337711,231.074578 682.371611,230.008481 681.99633,228.69285 L681.98094,228.63157 C681.4807,226.58802 681.87558,224.44916 682.00477,222.34924 C682.13396,220.24932 681.91616,217.94436 680.4782,216.40858 C677.79768,213.5457 673.0644,215.09627 669.20674,214.38941 C664.531222,213.372008 661.339578,209.039357 661.75406,204.27241 C661.80661,203.83579 661.89034,203.39852 661.98451,202.96146 C662.461158,200.716581 661.858117,198.37807 660.355308,196.643642 C658.852499,194.909213 656.623662,193.979386 654.33379,194.13158 C650.44036,194.37511 646.24279,195.57758 643.00501,192.71017 C640.577509,190.396981 639.769015,186.85615 640.95192,183.71858 C642.76345,178.39789 647.94873,175.58975 653.08658,174.0338 C665.955729,170.240737 679.848755,172.444125 690.91278,180.03291 C694.17543,182.30661 697.22635,185.1691 698.63167,188.88927 C700.03699,192.60944 699.3938,197.31583 696.28301,199.79327 C701.239064,204.984644 703.054893,212.422751 701.04847,219.31384 C699.5321,224.29388 692.19363,229.1 688.48951,231.25775 Z" id="Path" fill="#000000"></path>
            <path d="M842.72999,572 C842.72999,572.551655 842.281645,572.998484 841.72999,573 L460.72999,573 C460.177705,573 459.72999,572.552285 459.72999,572 C459.72999,571.447715 460.177705,571 460.72999,571 L841.72999,571 C842.281645,571.001516 842.72999,571.448345 842.72999,572 L842.72999,572 Z" id="Path" fill="#3F3D56"></path>
        </g>
    </g>
</svg>