
<svg width="1168px" height="757px" viewBox="0 0 1168 757" version="1.1" xmlns="http://www.w3.org/2000/svg" xmlns:xlink="http://www.w3.org/1999/xlink">
    <defs>
        <linearGradient x1="50%" y1="100%" x2="50%" y2="0%" id="linearGradient-1">
            <stop stop-color="#808080" stop-opacity="0.25" offset="0%"></stop>
            <stop stop-color="#808080" stop-opacity="0.12" offset="54%"></stop>
            <stop stop-color="#808080" stop-opacity="0.1" offset="100%"></stop>
        </linearGradient>
        <linearGradient x1="50%" y1="100%" x2="50%" y2="-9.47390314e-13%" id="linearGradient-2">
            <stop stop-color="#808080" stop-opacity="0.25" offset="0%"></stop>
            <stop stop-color="#808080" stop-opacity="0.12" offset="54%"></stop>
            <stop stop-color="#808080" stop-opacity="0.1" offset="100%"></stop>
        </linearGradient>
        <linearGradient x1="49.9676589%" y1="99.9746584%" x2="49.9676589%" y2="-0.00863927369%" id="linearGradient-3">
            <stop stop-color="#808080" stop-opacity="0.25" offset="0%"></stop>
            <stop stop-color="#808080" stop-opacity="0.12" offset="54%"></stop>
            <stop stop-color="#808080" stop-opacity="0.1" offset="100%"></stop>
        </linearGradient>
    </defs>
    <g id="Page-1" stroke="none" stroke-width="1" fill="none" fill-rule="evenodd">
        <g id="About" fill-rule="nonzero">
            <ellipse id="Oval" fill="#2CEAA9" opacity="0.1" cx="560.76" cy="725.03" rx="541" ry="31"></ellipse>
            <g id="Group" opacity="0.2" transform="translate(987.000000, 478.000000)">
                <path d="M20.26,248.42 C19.7645108,249.360045 19.1855138,250.253641 18.53,251.09 C12.77,247.03 6.91333333,243.053333 0.96,239.16 C1.08,238.91 1.21,238.65 1.35,238.4 C2.73212523,235.730034 4.80384156,233.478769 7.35,231.88 C10.64,229.88 14.35,229.4 17.35,231.02 C20.35,232.64 22.11,235.96 22.29,239.8 C22.3944953,242.802984 21.6935919,245.779234 20.26,248.42 Z" id="Path" fill="#3F3D56"></path>
                <ellipse id="Oval" fill="#3F3D56" transform="translate(18.855857, 228.353080) rotate(-62.090000) translate(-18.855857, -228.353080) " cx="18.8558568" cy="228.35308" rx="14.01" ry="10.7"></ellipse>
                <ellipse id="Oval" fill="#3F3D56" transform="translate(26.866235, 213.217979) rotate(-62.090000) translate(-26.866235, -213.217979) " cx="26.8662349" cy="213.217979" rx="14.01" ry="10.7"></ellipse>
                <ellipse id="Oval" fill="#3F3D56" transform="translate(34.890131, 198.078722) rotate(-62.090000) translate(-34.890131, -198.078722) " cx="34.8901309" cy="198.078722" rx="14.01" ry="10.7"></ellipse>
                <ellipse id="Oval" fill="#3F3D56" transform="translate(42.905190, 182.934784) rotate(-62.090000) translate(-42.905190, -182.934784) " cx="42.90519" cy="182.934784" rx="14.01" ry="10.7"></ellipse>
                <path d="M62.31,60.52 C61.891759,58.2070257 61.6311589,55.8683063 61.53,53.52 L88.53,62.6 L61.53,48.6 C62.3244747,34.457078 68.9203456,21.2689542 79.76,12.15 L105.87,50.01 L85.56,7.94 C101.825687,-2.21996217 122.401172,-2.45460823 138.89433,7.33176694 C155.387489,17.1181421 165.041458,35.2897281 163.918673,54.4348778 C162.795888,73.5800274 151.084023,90.4985942 133.56,98.29 C134.222039,101.917156 134.490262,105.605223 134.36,109.29 L93.21,108.97 L133.73,115.64 C130.949763,132.743541 119.727873,147.289878 103.89,154.32 C108.669647,180.638128 92.417197,206.209433 66.5594325,213.055226 C40.7016681,219.901019 13.925269,205.72152 5.05620234,180.486058 C-3.81286433,155.250596 8.20488337,127.436796 32.66,116.6 C28.4552698,93.3251769 40.7112095,70.1929685 62.33,60.6 L62.31,60.52 Z" id="Path" fill="#2CEAA9"></path>
                <path d="M128.4,131.4 C123.037139,141.574434 114.39265,149.637455 103.87,154.28 C108.649647,180.598128 92.397197,206.169433 66.5394325,213.015226 C40.6816681,219.861019 13.905269,205.68152 5.03620234,180.446058 C-3.83286433,155.210596 8.18488337,127.396796 32.64,116.56 C30.65,105.63 131.1,126.32 128.4,131.4 Z" id="Path" fill="#000000" opacity="0.1"></path>
            </g>
            <g id="Group" opacity="0.2" transform="translate(928.000000, 6.000000)">
                <path d="M47.13,417.95 C46.5074987,419.55531 45.7550001,421.10713 44.88,422.59 C34.8066667,417.216667 24.6033333,411.996667 14.27,406.93 C14.41,406.5 14.57,406.05 14.74,405.62 C16.4161549,401.062074 19.28204,397.036023 23.04,393.96 C27.91,390.06 33.78,388.59 39.04,390.58 C44.3,392.57 47.66,397.58 48.71,403.69 C49.4685511,408.499086 48.9229161,413.423615 47.13,417.95 L47.13,417.95 Z" id="Path" fill="#3F3D56"></path>
                <ellipse id="Oval" fill="#3F3D56" transform="translate(40.817578, 385.902136) rotate(-69.160000) translate(-40.817578, -385.902136) " cx="40.817578" cy="385.902136" rx="22.69" ry="17.33"></ellipse>
                <ellipse id="Oval" fill="#3F3D56" transform="translate(50.690463, 359.989473) rotate(-69.160000) translate(-50.690463, -359.989473) " cx="50.6904629" cy="359.989473" rx="22.69" ry="17.33"></ellipse>
                <ellipse id="Oval" fill="#3F3D56" transform="translate(60.547559, 334.063906) rotate(-69.160000) translate(-60.547559, -334.063906) " cx="60.5475591" cy="334.063906" rx="22.69" ry="17.33"></ellipse>
                <ellipse id="Oval" fill="#3F3D56" transform="translate(70.420444, 308.161243) rotate(-69.160000) translate(-70.420444, -308.161243) " cx="70.420444" cy="308.161243" rx="22.69" ry="17.33"></ellipse>
                <path d="M77.25,107.7 C76.1105832,104.038718 75.2251472,100.30318 74.6,96.52 L119.82,105.73 L73.66,88.55 C72.1292531,65.750068 80.0537234,43.3257339 95.57,26.55 L145.13,82.01 L104.13,18.48 C128.245078,-0.996285037 161.203454,-5.41175136 189.594653,7.03021581 C217.985851,19.472183 237.077999,46.6979202 239.10267,77.6295123 C241.12734,108.561104 225.747086,138.04328 199.22,154.08 C200.996219,159.776132 202.15619,165.646391 202.68,171.59 L136.51,179.27 L202.94,181.92 C201.883226,209.957587 186.744665,235.567143 162.69,250.01 C175.577056,291.325634 154.554795,335.608906 114.395438,351.742221 C74.2360808,367.875535 28.4206355,350.443134 9.14334761,311.694663 C-10.1339403,272.946192 3.59808081,225.889044 40.69,203.59 C29.2607256,167.016973 44.3527988,127.37342 77.21,107.66 L77.25,107.7 Z" id="Path" fill="#2CEAA9"></path>
                <path d="M197.55,208.4 C190.950165,225.801552 178.666351,240.463901 162.69,250.01 C175.577056,291.325634 154.554795,335.608906 114.395438,351.742221 C74.2360808,367.875535 28.4206355,350.443134 9.14334761,311.694663 C-10.1339403,272.946192 3.59808081,225.889044 40.69,203.59 C35.36,186.47 200.87,199.7 197.55,208.4 Z" id="Path" fill="#000000" opacity="0.1"></path>
            </g>
            <g id="Group" opacity="0.2">
                <path d="M178.38,510.16 C178.886224,512.144986 179.555154,514.084883 180.38,515.96 C193.046667,511.106667 205.856667,506.44 218.81,501.96 C218.7,501.43 218.59,500.88 218.45,500.34 C217.145485,494.709922 214.35926,489.531065 210.38,485.34 C205.2,480.02 198.49,477.42 192.04,479 C185.59,480.58 180.84,486 178.69,493 C177.050433,498.588815 176.943364,504.515612 178.38,510.16 L178.38,510.16 Z" id="Path" fill="#3F3D56"></path>
                <ellipse id="Oval" fill="#3F3D56" transform="translate(190.632182, 473.207530) rotate(-13.720000) translate(-190.632182, -473.207530) " cx="190.632182" cy="473.20753" rx="20.61" ry="26.98"></ellipse>
                <ellipse id="Oval" fill="#3F3D56" transform="translate(182.808527, 441.186188) rotate(-13.720000) translate(-182.808527, -441.186188) " cx="182.808527" cy="441.186188" rx="20.61" ry="26.98"></ellipse>
                <ellipse id="Oval" fill="#3F3D56" transform="translate(174.994587, 409.152474) rotate(-13.720000) translate(-174.994587, -409.152474) " cx="174.994587" cy="409.152474" rx="20.61" ry="26.98"></ellipse>
                <ellipse id="Oval" fill="#3F3D56" transform="translate(167.168560, 377.111417) rotate(-13.720000) translate(-167.168560, -377.111417) " cx="167.16856" cy="377.111417" rx="20.61" ry="26.98"></ellipse>
                <path d="M188.58,139.63 C190.469611,135.479912 192.066837,131.202823 193.36,126.83 L138.65,131.01 L195.65,117.55 C200.832692,90.8593838 194.788235,63.2125946 178.94,41.12 L112.26,99.36 L170.03,30.44 C144.460405,3.81307396 106.171159,-6.32271659 70.776455,4.16596103 C35.3817514,14.6546387 8.7965752,44.0149694 1.8622492,80.2739341 C-5.0720768,116.532899 8.8032771,153.631082 37.83,176.44 C34.8926185,182.902332 32.6565082,189.66095 31.16,196.6 L108.11,215.41 L29.33,208.74 C26.4454851,241.971079 40.5217028,274.414448 66.76,295.01 C45.4415388,341.870178 63.7167575,397.245694 108.739545,422.211704 C153.762332,447.177714 210.412277,433.349656 238.868706,390.447621 C267.325136,347.545585 258.03127,289.977752 217.52,258.21 C236.383565,216.727896 224.399186,167.724182 188.52,139.63 L188.58,139.63 Z" id="Path" fill="#2CEAA9"></path>
                <path d="M31.76,240.72 C36.977324,262.242908 49.3103074,281.373128 66.76,295.01 C45.4415388,341.870178 63.7167575,397.245694 108.739545,422.211704 C153.762332,447.177714 210.412277,433.349656 238.868706,390.447621 C267.325136,347.545585 258.03127,289.977752 217.52,258.21 C226.4,238.76 29.15,230.01 31.76,240.72 Z" id="Path" fill="#000000" opacity="0.1"></path>
            </g>
            <path d="M1056.3,113.71 L87.56,113.71 C85.2667934,113.71 83.06871,114.626847 81.449983,116.251201 C79.831256,117.875555 78.9299741,120.076798 78.9299741,122.37 L78.9299741,715.25 C78.9299741,719.872726 80.7507736,724.309279 84.013908,727.583666 C87.2770425,730.858052 91.7072745,732.70205 96.33,732.71 L1047.53,732.71 C1052.15273,732.70205 1056.58296,730.858052 1059.84609,727.583666 C1063.10923,724.309279 1064.93003,719.872726 1064.93003,715.25 L1064.93003,122.37 C1064.93003,117.596634 1061.07336,113.721033 1056.3,113.71 Z" id="Path" fill="url(#linearGradient-1)"></path>
            <path d="M1061.01,150.52 L1061.01,711.76 C1061.01,721.284626 1053.28463,729.01 1043.76,729.01 L100.27,729.01 C90.7375652,729.01 83.01,721.282435 83.01,711.75 L83.01,150.52 L1061.01,150.52 Z" id="Path" fill="#FFFFFF"></path>
            <path d="M1061.01,125.58 L1061.01,150.52 L83.01,150.52 L83.01,125.58 C83.01,120.852443 86.8424425,117.02 91.57,117.02 L1052.45,117.02 C1057.17756,117.02 1061.01,120.852443 1061.01,125.58 L1061.01,125.58 Z" id="Path" fill="#EDEDF4"></path>
            <circle id="Oval" fill="#FA5959" opacity="0.8" cx="98.51" cy="133.52" r="4"></circle>
            <circle id="Oval" fill="#FED253" opacity="0.8" cx="109.51" cy="133.52" r="4"></circle>
            <circle id="Oval" fill="#8CCF4D" opacity="0.8" cx="120.51" cy="133.52" r="4"></circle>
            <rect id="Rectangle" fill="url(#linearGradient-2)" transform="translate(625.930000, 100.720000) rotate(90.000000) translate(-625.930000, -100.720000) " x="623.93" y="97.72" width="4" height="6"></rect>
            <rect id="Rectangle" fill="#EDEDF4" x="307.93" y="199.71" width="94" height="10"></rect>
            <rect id="Rectangle" fill="#EDEDF4" x="307.93" y="228.71" width="528" height="10"></rect>
            <rect id="Rectangle" fill="#EDEDF4" x="307.93" y="257.71" width="528" height="10"></rect>
            <rect id="Rectangle" fill="#EDEDF4" x="307.93" y="286.71" width="528" height="10"></rect>
            <rect id="Rectangle" fill="#EDEDF4" x="307.93" y="315.71" width="528" height="10"></rect>
            <rect id="Rectangle" fill="#EDEDF4" x="408.76" y="371.03" width="326" height="252"></rect>
            <path d="M628.96,449.1 C628.54,449.1 628.12,449.16 627.69,449.17 C627.831907,448.588028 627.879179,447.987002 627.83,447.39 C627.707062,444.86796 627.023849,442.404977 625.83,440.18 C625.094703,438.868735 624.265891,437.612149 623.35,436.42 C620.63,432.66 618.11,428.82 615.12,425.27 C613.823408,423.890455 612.753488,422.314264 611.95,420.6 C611.648142,419.674566 611.287406,418.769385 610.87,417.89 C609.691213,416.0577 607.589118,415.03558 605.42,415.24 C603.280593,415.492025 601.312209,416.533271 599.9,418.16 C599.06,419.06 598.37,420.45 599.07,421.47 C599.77,422.49 601.29,422.62 601.38,423.74 C601.38,424.34 601.38,425.32 600.77,425.51 C599.687049,425.79633 598.654863,426.248333 597.71,426.85 C596.762449,427.477818 596.165927,428.515249 596.1,429.65 C597.83,429.91 599.28,428.46 600.85,427.65 C602.843053,426.800219 605.080124,426.718288 607.13,427.42 C607.917774,427.629674 608.653343,428.000864 609.29,428.51 C609.850958,429.060604 610.323225,429.694792 610.69,430.39 C612.616106,433.174745 613.806369,436.401528 614.15,439.77 L615.03,445.39 C613.728294,445.493783 612.433097,445.667366 611.15,445.91 C607.696275,446.41926 604.173448,446.18054 600.82,445.21 C597.32,444.21 593.82,442.39 590.21,443.21 C588.52,443.58 586.98,444.52 585.27,444.79 C583.933632,444.918845 582.58553,444.84807 581.27,444.58 L578.52,444.14 C578.43,443.91 578.36,443.67 578.29,443.43 C577.721369,441.424227 577.458413,439.34418 577.51,437.26 C581.150769,437.064665 584.458188,435.078027 586.340812,431.955676 C588.223436,428.833324 588.436615,424.981012 586.91,421.67 C588.392822,420.838714 589.620349,419.618102 590.46,418.14 L589.76,418.01 L590.42,417.01 C590.105086,416.817732 589.898233,416.48923 589.860937,416.122151 C589.82364,415.755072 589.960193,415.391678 590.23,415.14 C589.647304,414.837859 588.99582,414.693085 588.34,414.72 C588.55,414.33 588.21,413.85 587.8,413.72 C587.37248,413.633129 586.934946,413.606204 586.5,413.64 C585.86192,413.590913 585.23488,413.445952 584.64,413.21 C580.37,411.74 575.74,410.45 571.39,411.68 C569.472757,412.278406 567.680278,413.220389 566.1,414.46 C562.901766,416.255732 561.663808,420.237391 563.28,423.53 C563.939939,425.168237 564.412931,426.875703 564.69,428.62 C564.751259,430.248523 564.565828,431.876943 564.14,433.45 C565.092177,433.739906 566.064965,433.957195 567.05,434.1 C566.4944,436.247536 565.511479,438.260993 564.16,440.02 C563.540729,440.798211 562.872721,441.536359 562.16,442.23 L562.04,442.23 C560.057298,442.600966 558.053421,442.848111 556.04,442.97 C553.92,442.97 551.84,442.17 549.73,442.32 C548.479873,442.460904 547.2491,442.739253 546.06,443.15 C540.571089,444.759017 534.868805,445.521119 529.15,445.41 L528.46,445.48 L529.1,441.4 C529.443631,438.031528 530.633894,434.804745 532.56,432.02 C532.926775,431.324792 533.399042,430.690604 533.96,430.14 C534.600242,429.630621 535.339118,429.259481 536.13,429.05 C538.17643,428.347989 540.410504,428.429941 542.4,429.28 C543.97,430.05 545.4,431.5 547.16,431.28 C547.087174,430.144808 546.487845,429.108931 545.54,428.48 C544.595137,427.878333 543.562951,427.42633 542.48,427.14 C541.9,426.95 541.82,425.97 541.87,425.37 C541.96,424.25 543.55,424.01 544.18,423.09 C544.81,422.17 544.18,420.69 543.35,419.78 C541.935546,418.157752 539.967685,417.120347 537.83,416.87 C535.663473,416.664806 533.56393,417.687561 532.39,419.52 C531.965053,420.397314 531.600863,421.302778 531.3,422.23 C530.496512,423.944264 529.426592,425.520455 528.13,426.9 C525.13,430.45 522.62,434.29 519.9,438.05 C518.989824,439.242722 518.16127,440.495575 517.42,441.8 C516.232145,444.030964 515.549359,446.495824 515.42,449.02 C515.370785,449.620314 515.41805,450.224637 515.56,450.81 C515.493188,450.950985 515.455762,451.104091 515.45,451.26 C515.512565,451.812118 515.793439,452.316251 516.23,452.66 C517.76,454.2 519.37,455.79 521.43,456.45 C522.711613,456.75332 524.01076,456.977081 525.32,457.12 C528.48,457.69 531.39,459.52 534.6,459.51 C536.81,459.51 538.99,458.63 541.17,458.94 C544.17,459.35 546.33,461.79 548.17,464.16 C549.732744,466.00985 550.906159,468.156011 551.62,470.47 C552.33,473.26 551.89,476.4 553.38,478.86 C553.75592,479.362327 554.04648,479.923176 554.24,480.52 C554.270936,481.463755 554.061005,482.399842 553.63,483.24 C552.37,487.11 555.13,491.24 554.84,495.24 C554.7,497.19 553.84,499.03 553.75,500.98 C553.6,503.49 554.62,506.3 553.22,508.39 C554.07,507.95 554.93,507.56 555.81,507.21 C551.61,519.52 547.81,532.21 548.1,545.15 C548.32,553.54 550.1,562.78 545.28,569.67 C544.5951,570.491431 544.051064,571.420687 543.67,572.42 C543.29,573.77 543.67,575.2 543.92,576.58 C544.81,582.58 541.57,588.49 541.35,594.58 C541.324765,596.456495 541.445126,598.332121 541.71,600.19 L542.89,610.33 C541.700894,610.588919 540.594547,611.138657 539.67,611.93 C538.43,612.93 537.34,614.57 537.92,616.07 C538.39,617.28 539.77,617.86 541.04,618.16 C542.342403,618.306109 543.587198,618.777206 544.66,619.53 C545.003141,619.909823 545.36703,620.270374 545.75,620.61 C546.489314,621.010641 547.336086,621.168098 548.17,621.06 C549.7,621 551.17,620.87 552.73,620.66 C553.053827,620.646551 553.368102,620.546397 553.64,620.37 C554.009237,619.961523 554.193733,619.418887 554.15,618.87 C554.262021,617.347748 554.198268,615.817657 553.96,614.31 C553.9,614.02 553.82,613.74 553.74,613.45 C554.265175,612.16467 554.637722,610.822159 554.85,609.45 C555.16,607.45 555.21,605.36 555.34,603.31 C555.64,598.09 556.34,592.91 557.14,587.73 L558.14,581.07 C558.45,578.88 558.77,576.69 559.14,574.5 C560.993942,562.638327 563.878189,550.960807 567.76,539.6 C568.61,537.17 570.06,534.32 572.63,534.25 L574.16,537.25 C576.16,541.01 577.38,545.18 578.9,549.13 C580.9,554.32 580.22,560.38 582.9,565.26 C583.34,566.07 583.9,566.84 584.23,567.69 C584.704096,568.998372 584.980468,570.370119 585.05,571.76 L586.82,589.76 C587.62,597.85 588.48,606.16 592.11,613.43 C592.337889,613.898704 592.605536,614.347012 592.91,614.77 C592.798225,615.980162 592.781507,617.197225 592.86,618.41 C592.746777,618.844674 592.84437,619.307288 593.123528,619.659185 C593.402686,620.011081 593.830966,620.211363 594.28,620.2 C595.79,620.4 597.28,620.53 598.83,620.59 C599.663914,620.698098 600.510686,620.540641 601.25,620.14 C601.641036,619.805691 602.008573,619.444837 602.35,619.06 C603.419093,618.307237 604.660662,617.83606 605.96,617.69 C607.23,617.4 608.61,616.82 609.08,615.6 C609.67,614.1 608.57,612.47 607.33,611.46 C606.324901,610.581858 605.089701,610.009364 603.77,609.81 C603.226591,609.841348 602.681456,609.797602 602.15,609.68 C602.273655,609.020996 602.313971,608.349061 602.27,607.68 C602.141958,606.893485 602.108387,606.094484 602.17,605.3 C602.374236,604.497479 602.648626,603.714465 602.99,602.96 C604.14,599.42 601.69,595.82 600.83,592.2 C599.68,587.38 601.39,582.33 601.08,577.38 C600.6,569.61 595.18,562.32 596.62,554.67 C597.77,548.55 596.79,542.26 595.7,536.13 L591.7,513.32 C591.418545,511.468525 590.932228,509.654058 590.25,507.91 C590.992376,507.781457 591.721897,507.587364 592.43,507.33 C593.43,504.89 593.26,502.2 592.96,499.58 C592.66,496.96 591.96,494.4 591.61,491.8 C591.306887,489.709382 591.133223,487.602035 591.09,485.49 C590.980954,483.406467 591.128731,481.317433 591.53,479.27 C591.989821,477.472456 592.615851,475.72158 593.4,474.04 C595.335211,469.184666 597.676859,464.50137 600.4,460.04 C604.51,459.72 608.49,459.37 612.59,459.04 C613.572816,458.995091 614.549848,458.864597 615.51,458.65 C616.733723,458.228213 617.978774,457.871053 619.24,457.58 C619.710422,457.555456 620.175015,457.464557 620.62,457.31 C621.52,456.9 622.07,455.75 623.06,455.71 C623.431691,455.759525 623.808309,455.759525 624.18,455.71 C624.62,455.57 624.84,455.09 625.18,454.71 C625.8,454.02 626.81,453.88 627.62,453.43 C629.053261,452.49931 629.617033,450.677571 628.96,449.1 L628.96,449.1 Z" id="Path" fill="url(#linearGradient-3)"></path>
            <circle id="Oval" fill="#EABD87" cx="576.94" cy="427.16" r="11"></circle>
            <path d="M564.24,440.85 C563.116131,442.232192 561.860191,443.501529 560.49,444.64 C566.952496,448.492682 574.633442,449.757359 581.99,448.18 C581.72,447.43 580.74,447.32 580.05,446.94 C579.15384,446.304139 578.54333,445.341686 578.35,444.26 C577.608545,441.624499 577.391109,438.869178 577.71,436.15 C577.844694,435.490137 577.844694,434.809863 577.71,434.15 C577.325956,433.160005 576.588397,432.347621 575.64,431.87 C574.082118,430.898529 572.400279,430.141701 570.64,429.62 C568.82,429.08 567.78,428.83 567.71,430.95 C567.636231,434.535163 566.420631,438.003302 564.24,440.85 Z" id="Path" fill="#EABD87"></path>
            <path d="M615.28,447.77 L614.16,440.67 C613.978966,439.241407 613.681306,437.830028 613.27,436.45 C612.599061,434.65807 611.74098,432.941909 610.71,431.33 C610.343037,430.637897 609.870733,430.007034 609.31,429.46 C608.673343,428.950864 607.937774,428.579674 607.15,428.37 C605.105784,427.670852 602.874685,427.756389 600.89,428.61 C599.32,429.37 597.89,430.81 596.14,430.56 C596.206599,429.425599 596.807807,428.390185 597.76,427.77 C598.68404,427.16969 599.696266,426.717562 600.76,426.43 C601.33,426.25 601.42,425.27 601.37,424.67 C601.28,423.56 599.69,423.32 599.06,422.41 C598.43,421.5 599.06,420.02 599.88,419.11 C601.292218,417.493522 603.257304,416.462833 605.39,416.22 C607.553683,416.003589 609.655742,417.019842 610.83,418.85 C611.254898,419.723905 611.619093,420.62604 611.92,421.55 C612.723274,423.255946 613.789611,424.825082 615.08,426.2 C618.08,429.73 620.59,433.55 623.3,437.29 C624.206703,438.481705 625.03511,439.730997 625.78,441.03 C626.972384,443.244795 627.655645,445.697704 627.78,448.21 C627.869326,448.98249 627.755581,449.76492 627.45,450.48 C626.819958,451.538879 625.682113,452.191243 624.45,452.2 C623.220696,452.169453 622.006014,451.92584 620.86,451.48 L616.5,450.01 C615.969262,449.8926 615.483363,449.625356 615.1,449.24 C614.771759,448.776946 614.849731,448.140176 615.28,447.77 L615.28,447.77 Z" id="Path" fill="#EABD87"></path>
            <path d="M528.13,449.34 L529.24,442.24 C529.429213,440.811967 529.730135,439.400974 530.14,438.02 C530.80682,436.226278 531.665114,434.509689 532.7,432.9 C533.057658,432.207631 533.527324,431.579156 534.09,431.04 C534.72302,430.525228 535.459852,430.153401 536.25,429.95 C538.29643,429.247989 540.530504,429.329941 542.52,430.18 C544.09,430.94 545.52,432.38 547.27,432.13 C547.200269,430.996544 546.59982,429.962437 545.65,429.34 C544.725029,428.741405 543.713079,428.2894 542.65,428 C542.08,427.82 541.99,426.84 542.04,426.24 C542.13,425.13 543.71,424.89 544.35,423.98 C544.99,423.07 544.35,421.59 543.52,420.69 C542.110033,419.069036 540.14442,418.034503 538.01,417.79 C535.846734,417.575944 533.745844,418.591632 532.57,420.42 C532.148365,421.294105 531.787509,422.196245 531.49,423.12 C530.683732,424.824236 529.617696,426.392928 528.33,427.77 C525.33,431.3 522.82,435.12 520.1,438.86 C519.195303,440.050983 518.370177,441.300364 517.63,442.6 C516.442588,444.816793 515.759643,447.268564 515.63,449.78 C515.544829,450.556603 515.661954,451.342034 515.97,452.06 C516.613115,453.128863 517.772609,453.778939 519.02,453.77018 C520.246598,453.744289 521.458832,453.500488 522.6,453.05 L526.97,451.62 C527.498589,451.50459 527.981809,451.236907 528.36,450.85 C528.702241,450.366801 528.600583,449.699391 528.13,449.34 Z" id="Path" fill="#EABD87"></path>
            <path d="M607.33,611.42 C608.57,612.42 609.66,614.05 609.08,615.54 C608.6,616.75 607.23,617.32 605.96,617.62 C604.662573,617.767234 603.422068,618.234571 602.35,618.98 C602.010521,619.34773 601.646341,619.691862 601.26,620.01 C600.522332,620.415268 599.674042,620.573008 598.84,620.46 C597.32,620.4 595.84,620.27 594.29,620.07 C593.966173,620.056551 593.651898,619.956397 593.38,619.78 C593.009498,619.376758 592.827737,618.835109 592.88,618.29 C592.759433,616.77489 592.819685,615.250809 593.06,613.75 C593.312329,612.242652 594.087732,610.872421 595.25,609.88 C596.41,608.98 599.93,606.31 601.25,608.02 C601.6,608.48 601.46,609.11 601.95,609.49 C602.44,609.87 603.21,609.66 603.77,609.73 C605.094022,609.94079 606.32966,610.527371 607.33,611.42 Z" id="Path" fill="#3F3D56"></path>
            <path d="M539.76,611.94 C538.52,612.94 537.43,614.57 538.01,616.06 C538.48,617.27 539.85,617.85 541.12,618.14 C542.417824,618.285586 543.658721,618.753071 544.73,619.5 C545.071427,619.884837 545.438964,620.245691 545.83,620.58 C546.566429,620.978558 547.409368,621.135953 548.24,621.03 C549.76,620.97 551.24,620.84 552.79,620.63 C553.114088,620.618037 553.428749,620.517761 553.7,620.34 C554.074123,619.93844 554.259588,619.396589 554.21,618.85 C554.322209,617.337736 554.258449,615.817557 554.02,614.32 C553.774044,612.807593 552.997697,611.432146 551.83,610.44 C550.68,609.54 547.16,606.87 545.83,608.58 C545.48,609.04 545.62,609.68 545.12,610.05 C544.62,610.42 543.87,610.22 543.3,610.29 C541.988318,610.49617 540.761363,611.068056 539.76,611.94 Z" id="Path" fill="#3F3D56"></path>
            <path d="M556.76,505.24 C552.25,518.24 547.87,531.69 548.21,545.48 C548.43,553.83 550.21,563.03 545.4,569.88 C544.713911,570.696892 544.169695,571.623074 543.79,572.62 C543.41,573.96 543.79,575.38 544.03,576.76 C544.93,582.76 541.7,588.62 541.47,594.68 C541.44515,596.54652 541.565513,598.412146 541.83,600.26 L543.08,610.94 C543.5,614.6 548.22,616.1 551.86,616.61 C553.571699,614.567534 554.646124,612.067497 554.95,609.42 C555.26,607.42 555.31,605.35 555.43,603.32 C555.74,598.12 556.49,592.96 557.23,587.81 L558.23,581.18 C558.55,579 558.86,576.82 559.23,574.64 C561.097756,562.868403 563.985292,551.281453 567.86,540.01 C568.71,537.58 570.16,534.75 572.72,534.68 L574.25,537.62 C576.25,541.35 577.46,545.51 578.98,549.44 C580.98,554.61 580.29,560.63 582.98,565.5 C583.42,566.3 583.98,567.07 584.3,567.91 C584.768747,569.195698 585.045061,570.543571 585.12,571.91 L586.89,589.79 C587.69,597.84 588.54,606.11 592.17,613.34 C592.529307,614.204116 593.104304,614.961598 593.84,615.54 C595.32,616.54 597.39,616.03 598.84,614.99 C601.170081,613.275814 602.47263,610.497544 602.3,607.61 C602.181877,606.825862 602.148351,606.031301 602.2,605.24 C602.411955,604.443077 602.68613,603.664018 603.02,602.91 C604.18,599.39 601.73,595.81 600.86,592.21 C599.71,587.41 601.42,582.39 601.12,577.46 C600.64,569.72 595.23,562.46 596.66,554.85 C597.81,548.76 596.83,542.5 595.75,536.4 L591.7,513.7 C591.06,510.12 590.1,506.08 586.91,504.33 C585.081806,503.511294 583.076525,503.167335 581.08,503.33 C572.81,503.33 564.91,504.48 556.76,505.24 Z" id="Path" fill="#3F3D56"></path>
            <path d="M628.96,449.91 C626.047913,450.203292 623.115957,449.595958 620.56,448.17 C619.588794,447.524595 618.553251,446.981689 617.47,446.55 C615.47,445.9 613.27,446.47 611.17,446.78 C607.722534,447.279261 604.208344,447.040664 600.86,446.08 C597.36,445.08 593.86,443.27 590.26,444.08 C588.57,444.45 587.04,445.38 585.33,445.65 C583.993777,445.785144 582.644726,445.714319 581.33,445.44 L569.93,443.66 C567.357277,443.145056 564.729846,442.956902 562.11,443.1 C560.126732,443.469336 558.123158,443.719783 556.11,443.85 C554,443.85 551.92,443.05 549.81,443.19 C548.563324,443.332025 547.335986,443.610356 546.15,444.02 C540.673077,445.620083 534.984834,446.37874 529.28,446.27 C524.731133,446.568041 520.347002,448.08815 516.59,450.67 C516.065146,450.959995 515.698104,451.470185 515.59,452.06 C515.656937,452.607554 515.941721,453.105025 516.38,453.44 C517.9,454.98 519.51,456.56 521.57,457.22 C522.848275,457.520841 524.144149,457.741273 525.45,457.88 C528.6,458.46 531.51,460.27 534.71,460.27 C536.92,460.27 539.09,459.39 541.27,459.7 C544.27,460.11 546.42,462.53 548.27,464.89 C549.82544,466.733586 550.99824,468.868421 551.72,471.17 C552.42,473.95 551.98,477.07 553.47,479.52 C553.843893,480.019947 554.134322,480.577165 554.33,481.17 C554.36189,482.110647 554.151858,483.04374 553.72,483.88 C552.46,487.73 555.22,491.8 554.93,495.88 C554.79,497.81 553.93,499.65 553.84,501.58 C553.7,504.09 554.71,506.88 553.31,508.96 C558.71208,506.238152 564.715051,504.927474 570.76,505.15 C571.765246,505.174287 572.767622,505.267842 573.76,505.43 C575.688006,505.822966 577.586015,506.350933 579.44,507.01 C583.62,508.34 588.22,509.29 592.34,507.77 C593.34,505.34 593.17,502.66 592.86,500.06 C592.55,497.46 591.91,494.9 591.52,492.31 C591.2169,490.229442 591.043233,488.132076 591,486.03 C590.890981,483.956418 591.038769,481.877312 591.44,479.84 C591.89835,478.051695 592.52446,476.310642 593.31,474.64 C595.239657,469.782178 597.581536,465.098419 600.31,460.64 C604.41,460.31 608.38,459.96 612.48,459.64 C613.458664,459.585855 614.431615,459.455459 615.39,459.25 C616.610913,458.832822 617.852568,458.479017 619.11,458.19 C619.581064,458.163455 620.045842,458.069152 620.49,457.91 C621.39,457.5 621.95,456.36 622.93,456.33 C623.301993,456.374737 623.678007,456.374737 624.05,456.33 C624.49,456.2 624.7,455.71 625.05,455.33 C625.67,454.64 626.68,454.5 627.49,454.06 C628.891391,453.191606 629.502315,451.466888 628.96,449.91 L628.96,449.91 Z" id="Path" fill="#0A0B0B"></path>
            <path d="M578.85,431.13 C579.503915,431.644217 580.407853,431.699967 581.12,431.27 C581.556601,430.859023 581.850841,430.319582 581.96,429.73 C582.319557,428.48027 582.609997,427.211681 582.83,425.93 C582.887968,425.371753 583.058031,424.830951 583.33,424.34 C584.06,423.22 585.64,423.16 586.87,422.65 C588.39039,421.827882 589.648437,420.594095 590.5,419.09 L589.81,418.95 L590.46,417.95 C590.147003,417.760443 589.941797,417.434313 589.906362,417.070111 C589.870926,416.705909 590.009414,416.346338 590.28,416.1 C589.696619,415.789059 589.040417,415.640551 588.38,415.67 C588.59,415.29 588.25,414.81 587.84,414.67 C587.416039,414.581377 586.981062,414.557773 586.55,414.6 C585.911423,414.547563 585.284389,414.399232 584.69,414.16 C580.43,412.7 575.81,411.41 571.47,412.64 C569.552358,413.232667 567.759456,414.171484 566.18,415.41 C563.007666,417.192411 561.775378,421.139239 563.37,424.41 C564.025247,426.035276 564.494889,427.72934 564.77,429.46 C564.834736,431.084728 564.652665,432.709877 564.23,434.28 C565.414293,434.660235 566.639529,434.898569 567.88,434.99 C569.12868,435.085618 570.370315,434.730865 571.38,433.99 C572.38,433.13 572.94,431.8 573.76,430.72 C574.399774,429.752192 575.490037,429.178766 576.65,429.2 C577.76,429.37 577.96,430.5 578.85,431.13 Z" id="Path" fill="#000000"></path>
            <path d="M549.93,620.01 L538.22,620.01 C537.505519,620.153609 536.991496,620.78123 536.991496,621.51 C536.991496,622.23877 537.505519,622.866391 538.22,623.01 L540.56,623.01 L540.56,642.88 L500.49,642.88 C500.301366,642.563421 499.967913,642.361101 499.6,642.34 L487.9,642.34 C487.185519,642.483609 486.671496,643.11123 486.671496,643.84 C486.671496,644.56877 487.185519,645.196391 487.9,645.34 L490.24,645.34 L490.24,665.75 L451.55,665.75 C451.478842,665.178128 451.023081,664.730654 450.45,664.67 L438.76,664.67 C438.025182,664.790395 437.485764,665.425384 437.485764,666.17 C437.485764,666.914616 438.025182,667.549605 438.76,667.67 L439.93,667.67 L439.93,688.67 L400.6,688.67 C400.453499,688.58694 400.288394,688.542224 400.12,688.54 L388.42,688.54 C387.705519,688.683609 387.191496,689.31123 387.191496,690.04 C387.191496,690.76877 387.705519,691.396391 388.42,691.54 L389.59,691.54 L389.59,711.54 L350.76,711.54 C350.588191,711.137392 350.197576,710.871774 349.76,710.86 L338.06,710.86 C337.345519,711.003609 336.831496,711.63123 336.831496,712.36 C336.831496,713.08877 337.345519,713.716391 338.06,713.86 L339.23,713.86 L339.23,736.01 L603.76,736.01 L603.76,620.01 L549.93,620.01 Z" id="Path" fill="#3F3D56"></path>
            <path d="M173.02,236.31 C171.864557,234.785343 170.554226,233.384528 169.11,232.13 C168.314914,231.438511 167.890265,230.414084 167.962966,229.362878 C168.035666,228.311672 168.597293,227.355454 169.48,226.78 C169.96,226.47 170.43,226.14 170.9,225.78 C176.36,221.63 179.12,216.06 177.05,213.33 C174.98,210.6 168.87,211.76 163.41,215.91 C162.778872,216.379049 162.174587,216.883176 161.6,217.42 C160.821487,218.120109 159.760418,218.415969 158.731966,218.219699 C157.703514,218.02343 156.825972,217.357606 156.36,216.42 C155.592898,214.915892 154.692635,213.483504 153.67,212.14 C148.81,205.74 142.29,202.51 139.1,204.93 C135.91,207.35 137.25,214.51 142.1,220.93 C143.048305,222.184331 144.102145,223.355264 145.25,224.43 C146.019269,225.178729 146.387133,226.248362 146.241123,227.31187 C146.095112,228.375379 145.45259,229.306294 144.51,229.82 L144.51,229.82 C138.51,233.25 135.12,238.42 136.82,241.39 C138.52,244.36 144.74,243.99 150.69,240.57 C151.611942,240.034812 152.500269,239.443707 153.35,238.8 C154.160441,238.183322 155.20573,237.964925 156.195285,238.205523 C157.18484,238.44612 158.013168,239.120063 158.45,240.04 C159.261286,241.812867 160.267488,243.489869 161.45,245.04 C166.3,251.44 172.83,254.67 176.02,252.25 C179.21,249.83 177.87,242.72 173.02,236.31 Z" id="Path" fill="#2CEAA9" opacity="0.1"></path>
            <path d="M881.34,409.12 C882.467912,407.57541 883.429892,405.916246 884.21,404.17 C884.635618,403.207947 885.489619,402.502641 886.514774,402.26652 C887.53993,402.0304 888.616419,402.291064 889.42,402.97 C889.86,403.33 890.32,403.68 890.79,404.03 C896.35,408.03 902.49,409.03 904.49,406.28 C906.49,403.53 903.61,398 898.05,393.98 C897.383333,393.506667 896.716667,393.076667 896.05,392.69 C895.154066,392.146054 894.564355,391.214133 894.456369,390.171581 C894.348384,389.129029 894.734571,388.096026 895.5,387.38 C896.716161,386.211834 897.820928,384.932982 898.8,383.56 C903.51,377.05 904.69,369.87 901.45,367.56 C898.21,365.25 891.75,368.56 887.04,375.11 C886.120564,376.373697 885.307765,377.711637 884.61,379.11 C884.119176,380.064524 883.204171,380.729192 882.144662,380.900844 C881.085153,381.072497 880.007094,380.730727 879.24,379.98 L879.24,379.98 C874.24,375.29 868.24,373.51 865.93,375.98 C863.62,378.45 865.76,384.31 870.77,388.98 C871.548506,389.7002 872.373627,390.368315 873.24,390.98 C874.064743,391.577149 874.576338,392.514281 874.632604,393.530953 C874.68887,394.547625 874.283812,395.535488 873.53,396.22 C872.06292,397.53473 870.744986,399.006926 869.6,400.61 C864.89,407.12 863.71,414.3 866.96,416.61 C870.21,418.92 876.63,415.64 881.34,409.12 Z" id="Path" fill="#2CEAA9" opacity="0.1"></path>
            <ellipse id="Oval" fill="#2CEAA9" cx="886.46" cy="740.19" rx="33.8" ry="6.5"></ellipse>
            <ellipse id="Oval" fill="#3F3D56" cx="885.9" cy="737.43" rx="3.94" ry="5.15"></ellipse>
            <ellipse id="Oval" fill="#3F3D56" cx="885.9" cy="731.13" rx="3.94" ry="5.15"></ellipse>
            <ellipse id="Oval" fill="#3F3D56" cx="885.9" cy="724.84" rx="3.94" ry="5.15"></ellipse>
            <ellipse id="Oval" fill="#3F3D56" cx="885.9" cy="718.54" rx="3.94" ry="5.15"></ellipse>
            <ellipse id="Oval" fill="#3F3D56" cx="885.9" cy="712.24" rx="3.94" ry="5.15"></ellipse>
            <ellipse id="Oval" fill="#3F3D56" cx="885.9" cy="705.95" rx="3.94" ry="5.15"></ellipse>
            <ellipse id="Oval" fill="#3F3D56" cx="885.9" cy="699.65" rx="3.94" ry="5.15"></ellipse>
            <path d="M900.63,656.56 C901.163266,655.872621 901.650975,655.151079 902.09,654.4 L891.76,652.7 L902.94,652.79 C905.114453,648.072575 905.244716,642.666682 903.3,637.85 L888.3,645.63 L902.14,635.46 C898.592141,629.383508 891.955219,625.788918 884.927454,626.1376 C877.899689,626.486282 871.651177,630.72018 868.72223,637.118018 C865.793283,643.515857 866.67156,651.012418 871,656.56 C870.16442,657.627914 869.44377,658.780955 868.85,660 L882.28,667 L867.96,662.2 C865.913391,668.228571 867.041179,674.882519 870.96,679.9 C864.885391,687.628451 865.769622,698.727543 872.991246,705.396724 C880.212871,712.065905 891.347129,712.065905 898.568754,705.396724 C905.790378,698.727543 906.674609,687.628451 900.6,679.9 C905.972782,673.05879 905.972782,663.43121 900.6,656.59 L900.63,656.56 Z" id="Path" fill="#2CEAA9"></path>
            <path d="M866.96,668.21 C866.947334,672.435374 868.356198,676.542213 870.96,679.87 C864.885391,687.598451 865.769622,698.697543 872.991246,705.366724 C880.212871,712.035905 891.347129,712.035905 898.568754,705.366724 C905.790378,698.697543 906.674609,687.598451 900.6,679.87 C903.15,676.66 866.96,666.1 866.96,668.21 Z" id="Path" fill="#000000" opacity="0.1"></path>
            <ellipse id="Oval" fill="#2CEAA9" cx="270.46" cy="741.74" rx="15.3" ry="2.94"></ellipse>
            <ellipse id="Oval" fill="#3F3D56" cx="270.21" cy="740.49" rx="1.78" ry="2.33"></ellipse>
            <ellipse id="Oval" fill="#3F3D56" cx="270.21" cy="737.64" rx="1.78" ry="2.33"></ellipse>
            <ellipse id="Oval" fill="#3F3D56" cx="270.21" cy="734.79" rx="1.78" ry="2.33"></ellipse>
            <ellipse id="Oval" fill="#3F3D56" cx="270.21" cy="731.94" rx="1.78" ry="2.33"></ellipse>
            <ellipse id="Oval" fill="#3F3D56" cx="270.21" cy="729.09" rx="1.78" ry="2.33"></ellipse>
            <ellipse id="Oval" fill="#3F3D56" cx="270.21" cy="726.24" rx="1.78" ry="2.33"></ellipse>
            <ellipse id="Oval" fill="#3F3D56" cx="270.21" cy="723.39" rx="1.78" ry="2.33"></ellipse>
            <path d="M276.87,703.88 C277.117886,703.563789 277.341841,703.229528 277.54,702.88 L272.86,702.11 L277.92,702.11 C278.434534,700.990216 278.700625,699.772339 278.700034,698.54 C278.702182,697.446519 278.491603,696.363058 278.08,695.35 L271.29,698.87 L277.55,694.27 C275.94443,691.519928 272.940687,689.893191 269.760158,690.051255 C266.579629,690.209318 263.751978,692.12586 262.426988,695.021572 C261.101998,697.917285 261.500325,701.309936 263.46,703.82 C263.071872,704.299185 262.736598,704.818861 262.46,705.37 L268.53,708.53 L262.05,706.35 C261.132092,709.078803 261.650907,712.08643 263.43,714.35 C260.669437,717.849571 261.064602,722.883663 264.337407,725.909627 C267.610211,728.935591 272.659789,728.935591 275.932593,725.909627 C279.205398,722.883663 279.600563,717.849571 276.84,714.35 C279.279136,711.256275 279.279136,706.893725 276.84,703.8 L276.87,703.88 Z" id="Path" fill="#2CEAA9"></path>
            <path d="M261.63,709.15 C261.629841,711.065553 262.274448,712.925404 263.46,714.43 C260.699437,717.929571 261.094602,722.963663 264.367407,725.989627 C267.640211,729.015591 272.689789,729.015591 275.962593,725.989627 C279.235398,722.963663 279.630563,717.929571 276.87,714.43 C278.02,713.01 261.63,708.19 261.63,709.15 Z" id="Path" fill="#000000" opacity="0.1"></path>
        </g>
    </g>
</svg>